<svg width="1920" height="1080" viewBox="0 0 1920 1080" fill="none" xmlns="http://www.w3.org/2000/svg">
<g id="space-background-light">
<mask id="mask0_495_5721" style="mask-type:alpha" maskUnits="userSpaceOnUse" x="0" y="0" width="1920" height="1080">
<path id="Rectangle 27" d="M0 0H1920V1080H0V0Z" fill="#04080F"/>
</mask>
<g mask="url(#mask0_495_5721)">
<path id="Rectangle 25" d="M0 0H1920V1080H0V0Z" fill="#EAEFF9"/>
<g id="Group 65">
<path id="Vector" d="M1264.8 63.8815C1486.49 7.98877 1865.32 -117.19 1943.79 -68.2611C2022.27 -19.3326 1800.78 203.881 1798.94 426.202C1797.1 648.523 2015.3 869.952 1955.68 947.452C1896.06 1025.13 1558.81 958.88 1338.76 1037.09C1118.71 1115.31 1016.07 1338.17 896.411 1363.52C776.962 1388.7 640.712 1216.38 495.857 1100.31C350.797 984.237 197.336 924.416 90.1804 821.559C-16.7707 718.702 -77.4172 572.988 -98.5206 416.381C-119.829 259.774 -102.004 92.6315 -33.3665 -68.2611C35.2707 -229.154 154.72 -383.439 320.883 -355.761C487.047 -327.904 700.129 -117.725 839.043 -5.93979C978.161 105.846 1042.91 119.596 1264.8 63.8815Z" fill="#5570B6"/>
<path id="Vector_2" d="M1413.88 70.0948C1486.84 137.935 1537.61 218.575 1556.6 301.135C1575.58 383.695 1563 467.961 1696.33 629.241C1829.66 790.521 2108.92 1028.6 2166.31 1243.21C2223.48 1457.83 2058.57 1648.97 1852.28 1749.88C1645.98 1850.79 1398.3 1861.88 1220.17 1741.13C1042.04 1620.39 933.449 1368.01 809.716 1219.53C685.982 1070.84 546.888 1025.83 334.408 931.961C121.927 838.095 -163.727 695.161 -237.327 509.775C-310.927 324.388 -172.473 96.3348 -32.313 -122.759C107.847 -342.065 249.288 -552.625 446.621 -548.572C644.169 -544.518 897.182 -325.639 1071.48 -189.105C1245.77 -52.3586 1340.92 2.46813 1413.88 70.0948Z" fill="#8199CB"/>
<path id="Vector_3" d="M1106.5 -84.4999C1200.5 -84.4999 1422.87 206.486 1395.12 412.923C1367.33 619.236 1479.39 646.084 1583.54 786.937C1687.79 927.629 1784.28 1182.41 1720.19 1302.28C1656.09 1422.15 1431.29 1407.14 1207.12 1392.88C982.913 1378.5 759.21 1364.92 695.774 1239.8C632.338 1114.69 729.044 878.078 689.377 646C666.889 514.434 521 249 271.001 167.961C-19.9999 87.0001 24.6529 -53.6253 44.0002 -96.4372C67.8823 -157.469 607.589 -93.5829 766.5 -96.4371C936.958 -99.4988 1106.5 -84.4999 1106.5 -84.4999Z" fill="#4B70C0"/>
</g>
<g id="Group 70">
<path id="Vector_4" d="M-293.872 521.532L-296.366 519.461C-293.018 515.425 -289.469 511.237 -285.822 507.005L-283.366 509.123C-286.999 513.337 -290.539 517.514 -293.872 521.532ZM-272.656 496.899L-275.077 494.744C-271.518 490.745 -267.847 486.679 -264.156 482.649L-261.764 484.839C-265.445 488.857 -269.111 492.918 -272.656 496.899ZM-250.714 472.931L-253.077 470.711C-249.395 466.796 -245.621 462.827 -241.846 458.913L-239.513 461.164C-243.277 465.067 -247.041 469.028 -250.714 472.931ZM-228.165 449.539L-230.475 447.264C-226.721 443.461 -222.85 439.585 -218.975 435.741L-216.695 438.047C-220.561 441.873 -224.421 445.743 -228.165 449.539ZM-205.086 426.676L-207.342 424.346C-203.483 420.607 -199.526 416.82 -195.59 413.084L-193.359 415.439C-197.29 419.169 -201.237 422.949 -205.086 426.676ZM-181.515 404.33L-183.721 401.956C-179.783 398.301 -175.752 394.593 -171.736 390.946L-169.555 393.344C-173.561 396.979 -177.582 400.676 -181.515 404.33ZM-157.483 382.472L-159.64 380.049C-155.618 376.467 -151.512 372.842 -147.438 369.282L-145.306 371.723C-149.37 375.278 -153.471 378.896 -157.483 382.472ZM-133.023 361.105L-135.13 358.639C-131.029 355.124 -126.849 351.584 -122.722 348.115L-120.634 350.6C-124.757 354.063 -128.927 357.596 -133.023 361.105ZM-108.15 340.22L-110.213 337.716C-106.059 334.294 -101.816 330.834 -97.6046 327.432L-95.5672 329.955C-99.7681 333.35 -104.001 336.803 -108.15 340.22ZM-82.8838 319.809L-84.8961 317.267C-80.6786 313.924 -76.3726 310.545 -72.0984 307.223L-70.1058 309.783C-74.3752 313.099 -78.6764 316.473 -82.8838 319.809ZM-57.2384 299.878L-59.2059 297.299C-54.9007 294.012 -50.5311 290.718 -46.2242 287.496L-44.2817 290.094C-48.5791 293.304 -52.938 296.597 -57.2384 299.878ZM-31.237 280.42L-33.1543 277.802C-28.8111 274.614 -24.3842 271.395 -19.9945 268.235L-18.0974 270.866C-22.4818 274.025 -26.9033 277.244 -31.237 280.42ZM-4.87828 261.444L-6.75018 258.794C-2.35935 255.694 2.1253 252.555 6.57758 249.47L8.42374 252.133C3.98165 255.212 -0.497605 258.35 -4.87828 261.444ZM21.8151 242.943L19.994 240.26C24.4623 237.222 29.0046 234.164 33.489 231.173L35.2898 233.868C30.8055 236.86 26.2733 239.911 21.8151 242.943ZM48.8334 224.928L47.0578 222.213C51.5683 219.263 56.1631 216.286 60.7099 213.37L62.4599 216.098C57.9238 219.013 53.3392 221.983 48.8334 224.928ZM76.1655 207.395L74.4407 204.648C79.0191 201.771 83.6608 198.877 88.2499 196.048L89.9545 198.808C85.3756 201.631 80.7386 204.519 76.1655 207.395ZM103.806 190.345L102.127 187.571C106.732 184.789 111.426 181.976 116.083 179.216L117.736 182.004C113.09 184.757 108.4 187.565 103.806 190.345ZM131.745 173.784L130.117 170.983C134.754 168.291 139.495 165.559 144.219 162.873L145.822 165.694C141.107 168.373 136.37 171.093 131.745 173.784ZM159.96 157.715L158.378 154.882C163.097 152.251 167.891 149.601 172.615 147.018L174.172 149.865C169.458 152.447 164.674 155.09 159.96 157.715ZM188.458 142.143L186.927 139.282C191.698 136.727 196.534 134.165 201.301 131.67L202.806 134.544C198.05 137.038 193.219 139.594 188.458 142.143ZM217.216 127.064L215.737 124.181C220.52 121.728 225.397 119.248 230.242 116.815L231.695 119.712C226.86 122.138 221.993 124.611 217.216 127.064ZM246.236 112.484L244.803 109.574C249.627 107.203 254.547 104.811 259.427 102.462L260.834 105.385C255.964 107.728 251.05 110.119 246.236 112.484ZM1625.52 -46.9861C1620.19 -47.9585 1614.82 -48.9202 1609.55 -49.8502L1610.11 -53.0434C1615.39 -52.114 1620.77 -51.1475 1626.1 -50.1757L1625.52 -46.9861ZM275.496 98.4098L274.115 95.4781C279.006 93.1762 283.967 90.8666 288.859 88.619L290.214 91.5643C285.338 93.8048 280.382 96.1085 275.496 98.4098ZM1593.55 -52.6237C1588.25 -53.5286 1582.87 -54.4289 1577.53 -55.3083L1578.06 -58.508C1583.4 -57.6293 1588.79 -56.7243 1594.09 -55.8199L1593.55 -52.6237ZM304.995 84.8371L303.666 81.8782C308.589 79.6653 313.586 77.4388 318.524 75.2676L319.828 78.2349C314.9 80.4048 309.913 82.6248 304.995 84.8371ZM1561.5 -57.9093C1556.13 -58.763 1550.73 -59.6024 1545.45 -60.4112L1545.95 -63.6183C1551.24 -62.8106 1556.64 -61.9664 1562.01 -61.1127L1561.5 -57.9093ZM334.724 71.7668L333.446 68.786C338.4 66.6566 343.435 64.5238 348.42 62.4345L349.677 65.4231C344.697 67.5118 339.673 69.6434 334.724 71.7668ZM1529.4 -62.8249C1524.01 -63.6172 1518.61 -64.3958 1513.32 -65.1443L1513.78 -68.3527C1519.07 -67.6047 1524.48 -66.8267 1529.87 -66.035L1529.4 -62.8249ZM364.671 59.2108L363.44 56.2084C368.451 54.1544 373.528 52.1041 378.519 50.112L379.723 53.1227C374.738 55.1142 369.677 57.1573 364.671 59.2108ZM1497.23 -67.3695C1491.86 -68.0973 1486.44 -68.8096 1481.13 -69.4961L1481.55 -72.7112C1486.86 -72.0258 1492.29 -71.3087 1497.67 -70.5814L1497.23 -67.3695ZM394.827 47.1595L393.648 44.1404C398.712 42.1676 403.814 40.2016 408.825 38.2997L409.978 41.3324C404.976 43.2277 399.879 45.1879 394.827 47.1595ZM1465.02 -71.5285C1459.63 -72.1895 1454.2 -72.8464 1448.89 -73.4672L1449.27 -76.689C1454.58 -76.0687 1460.02 -75.4124 1465.41 -74.752L1465.02 -71.5285ZM425.179 35.6194L424.053 32.5784C429.095 30.7112 434.234 28.8334 439.328 26.9932L440.428 30.0425C435.339 31.8768 430.211 33.7534 425.179 35.6194ZM1432.76 -75.3069C1427.45 -75.8949 1422.02 -76.4809 1416.61 -77.0476L1416.95 -80.2705C1422.36 -79.7043 1427.8 -79.1143 1433.11 -78.5263L1432.76 -75.3069ZM1400.46 -78.6896C1395.09 -79.2223 1389.65 -79.7366 1384.29 -80.2328L1384.59 -83.4624C1389.95 -82.9667 1395.4 -82.4482 1400.78 -81.9162L1400.46 -78.6896ZM455.718 24.5916L454.644 21.5339C459.738 19.7426 464.903 17.9491 470.007 16.2056L471.06 19.2709C465.961 21.0138 460.802 22.8069 455.718 24.5916ZM1368.11 -81.6762C1362.76 -82.1396 1357.31 -82.5876 1351.93 -83.0158L1352.18 -86.2461C1357.58 -85.8191 1363.02 -85.3657 1368.39 -84.9035L1368.11 -81.6762ZM486.438 14.0768L485.412 11.0032C490.51 9.3038 495.706 7.59917 500.863 5.93153L501.863 9.01351C496.717 10.68 491.527 12.384 486.438 14.0768ZM1335.74 -84.257C1330.35 -84.6518 1324.9 -85.0342 1319.54 -85.3937L1319.75 -88.6304C1325.12 -88.2715 1330.58 -87.8898 1335.98 -87.4908L1335.74 -84.257ZM517.334 4.0703L516.36 0.979961C521.537 -0.646468 526.764 -2.26747 531.893 -3.83967L532.841 -0.735571C527.717 0.830668 522.5 2.44504 517.334 4.0703ZM1303.33 -86.4266C1297.95 -86.7509 1292.49 -87.0617 1287.12 -87.3556L1287.29 -90.593C1292.67 -90.3057 1298.13 -89.9897 1303.53 -89.6665L1303.33 -86.4266ZM548.389 -5.41552L547.468 -8.52238C552.628 -10.0545 557.876 -11.5855 563.078 -13.0842L563.973 -9.96894C558.781 -8.47682 553.539 -6.9465 548.389 -5.41552ZM1270.9 -88.1748C1265.5 -88.4324 1260.04 -88.6727 1254.68 -88.8903L1254.81 -92.1289C1260.18 -91.912 1265.65 -91.6676 1271.06 -91.4106L1270.9 -88.1748ZM579.593 -14.3957L578.724 -17.5191C583.941 -18.976 589.22 -20.4232 594.406 -21.8222L595.248 -18.6905C590.073 -17.298 584.805 -15.852 579.593 -14.3957ZM1238.45 -89.5024C1233.03 -89.6865 1227.57 -89.8559 1222.22 -90.0053L1222.31 -93.2501C1227.66 -93.1013 1233.13 -92.9331 1238.56 -92.7441L1238.45 -89.5024ZM610.939 -22.864L610.117 -26.0035C615.366 -27.3768 620.664 -28.7393 625.87 -30.0535L626.665 -26.9109C621.471 -25.5925 616.177 -24.2308 610.939 -22.864ZM1205.99 -90.399C1200.56 -90.5121 1195.1 -90.605 1189.75 -90.6834L1189.8 -93.9236C1195.15 -93.8457 1200.62 -93.7534 1206.06 -93.636L1205.99 -90.399ZM642.423 -30.82L641.654 -33.9708C646.88 -35.2492 652.2 -36.5215 657.468 -37.7664L658.21 -34.6072C652.952 -33.3689 647.638 -32.0972 642.423 -30.82ZM1173.51 -90.8594C1168.14 -90.8972 1162.68 -90.9191 1157.28 -90.9212L1157.28 -94.1668C1162.68 -94.1659 1168.16 -94.1392 1173.54 -94.1026L1173.51 -90.8594ZM674.027 -38.2728L673.306 -41.4341C678.569 -42.6295 683.908 -43.8223 689.18 -44.9753L689.875 -41.8056C684.613 -40.6538 679.279 -39.467 674.027 -38.2728ZM1141.03 -90.8734C1135.63 -90.8373 1130.17 -90.7834 1124.79 -90.712L1124.75 -93.9528C1130.13 -94.0253 1135.6 -94.0798 1141.01 -94.1111L1141.03 -90.8734ZM705.747 -45.2108L705.079 -48.3834C710.346 -49.4922 715.705 -50.6003 721.009 -51.6697L721.65 -48.4887C716.357 -47.4205 711.009 -46.3191 705.747 -45.2108ZM1108.56 -90.4479C1103.14 -90.3385 1097.68 -90.2089 1092.33 -90.064L1092.24 -93.3055C1097.59 -93.4509 1103.06 -93.5811 1108.49 -93.6918L1108.56 -90.4479ZM737.576 -51.6496L736.956 -54.833C742.28 -55.8666 747.659 -56.8899 752.935 -57.8692L753.528 -54.6828C748.259 -53.6987 742.895 -52.6825 737.576 -51.6496ZM1076.09 -89.5608C1070.72 -89.3754 1065.26 -89.1693 1059.86 -88.9493L1059.73 -92.191C1065.13 -92.4121 1070.59 -92.6236 1075.98 -92.8047L1076.09 -89.5608ZM769.499 -57.5822L768.932 -60.7768C774.228 -61.7203 779.617 -62.6522 784.954 -63.5622L785.5 -60.3653C780.168 -59.4559 774.789 -58.5251 769.499 -57.5822ZM1043.65 -88.2191C1038.27 -87.9574 1032.82 -87.6708 1027.43 -87.3751L1027.25 -90.612C1032.64 -90.9137 1038.11 -91.1961 1043.49 -91.4584L1043.65 -88.2191ZM801.514 -63.0194L800.996 -66.2193C806.279 -67.0744 811.688 -67.9268 817.056 -68.7532L817.548 -65.5504C812.19 -64.7252 806.792 -63.874 801.514 -63.0194ZM1011.22 -86.4127C1005.83 -86.0728 1000.38 -85.7104 995.02 -85.3311L994.791 -88.5679C1000.16 -88.9431 1005.62 -89.3116 1011.02 -89.6521L1011.22 -86.4127ZM833.611 -67.9598L833.14 -71.1702C838.507 -71.953 843.925 -72.7251 849.243 -73.459L849.687 -70.2455C844.38 -69.5073 838.967 -68.7414 833.611 -67.9598ZM978.824 -84.1359C973.46 -83.7178 968.017 -83.2748 962.641 -82.8227L962.364 -86.0543C967.745 -86.5123 973.198 -86.9567 978.573 -87.3706L978.824 -84.1359ZM865.778 -72.4022L865.361 -75.6187C870.694 -76.3162 876.121 -77.0022 881.497 -77.6608L881.892 -74.442C876.522 -73.7839 871.106 -73.0991 865.778 -72.4022ZM946.466 -81.3851C941.062 -80.8864 935.623 -80.3622 930.304 -79.8294L929.984 -83.0565C935.313 -83.5904 940.758 -84.1152 946.173 -84.6151L946.466 -81.3851ZM898.015 -76.3577L897.646 -79.5794C903.015 -80.1993 908.402 -80.7993 913.808 -81.3797L914.155 -78.1556C908.75 -77.5752 903.373 -76.9763 898.015 -76.3577Z" fill="#18182E" fill-opacity="0.5"/>
</g>
<g id="nebula">
<path id="Vector_5" opacity="0.43" d="M1803.31 -297.733C1672.08 -273.178 1339.57 -204.385 1198.64 -114.26C1021.07 -0.703794 728.606 239.517 675.168 248.69C621.729 257.872 603.765 166.408 519.359 175.163C441.122 183.275 53.8667 339.434 -86.0836 443.48C-176.742 515.705 -80.6171 579.171 -50.211 567.872C30.0852 502.302 315.396 277.308 457.265 271.005C623.389 263.626 529.496 356.172 644.14 335.582C758.784 314.992 1208.6 -79.7177 1406.38 -152.341C1549.01 -204.715 1724.22 -250.27 1810.85 -271.605C1850.74 -286.432 1840.16 -305.257 1803.31 -297.733Z" fill="#F5E0B7"/>
<path id="Vector_6" opacity="0.5" d="M1295.44 1158.21C1421.48 1114.18 1739.84 996.09 1865.58 885.769C2024.02 746.766 2276.98 465.239 2328.42 448.124C2379.87 430.999 2411.4 518.714 2493.53 497.347C2569.65 477.545 2928.97 264.846 3051.66 140.91C3130.41 55.8554 3025.82 7.58941 2997.46 23.3391C2927.96 100.254 2679.78 365.65 2540.48 393.247C2377.36 425.559 2456.25 319.929 2346.01 357.55C2235.78 395.17 1850.53 853.121 1665.94 954.703C1532.83 1027.96 1366.49 1099.38 1284.06 1133.52C1246.85 1154.18 1260.15 1171.2 1295.44 1158.21Z" fill="#F5E0B7"/>
<path id="Vector_7" opacity="0.42" d="M1179.36 797.865C1146.92 799.187 1099.11 801.379 1043.43 804.699C939.345 810.907 816.979 873.32 753.233 914.162C689.486 955.005 530.353 985.969 432.328 959.309C334.303 932.647 272.613 829.431 178.513 782.23C117.008 751.375 -12.5886 731.59 -95 721.584L-85.1302 897.043C-19.4989 896.437 80.516 908.75 173.765 968.771C212.165 993.488 252.055 1014.07 292.008 1030.7C493.246 1089.02 602.287 1081.93 789.987 1002.69C855.392 967.299 917.055 927.633 957.398 900.984C1013.1 864.188 1120.96 848.347 1181.85 842.089C1258.27 823.271 1261.61 792.426 1179.36 797.865Z" fill="#F5E0B7"/>
</g>
<g id="constellations">
<g id="Group" opacity="0.43">
<g id="Group_2">
<g id="Group_3">
<g id="Group_4">
<g id="Group_5">
<path id="Vector_8" d="M120.408 1006.44L120.817 1006.05L123.134 1008.51L122.725 1008.89L120.408 1006.44ZM0.244509 1063.96L0.164453 1063.4L3.50745 1062.92L3.5875 1063.48L0.244509 1063.96ZM5.76202 1061.79L6.33782 1058.46L6.89284 1058.56L6.31712 1061.89L5.76202 1061.79ZM-6.44085 1064.92L-6.52165 1064.36L-3.17939 1063.88L-3.09851 1064.44L-6.44085 1064.92ZM115.773 1001.52L116.182 1001.13L118.5 1003.59L118.09 1003.98L115.773 1001.52ZM-13.1276 1065.89L-13.2077 1065.33L-9.86539 1064.85L-9.78533 1065.4L-13.1276 1065.89ZM6.91343 1055.13L7.48922 1051.81L8.04425 1051.9L7.46853 1055.23L6.91343 1055.13ZM-19.813 1066.85L-19.8931 1066.29L-16.5507 1065.81L-16.4707 1066.37L-19.813 1066.85ZM-26.4998 1067.81L-26.5798 1067.26L-23.2376 1066.78L-23.1574 1067.33L-26.4998 1067.81ZM-33.1851 1068.78L-33.266 1068.22L-29.9229 1067.74L-29.8429 1068.3L-33.1851 1068.78ZM111.138 996.607L111.548 996.22L113.866 998.677L113.456 999.064L111.138 996.607ZM8.06484 1048.48L8.63988 1045.15L9.1949 1045.25L8.61994 1048.57L8.06484 1048.48ZM-39.8719 1069.74L-39.952 1069.19L-36.6097 1068.7L-36.5296 1069.26L-39.8719 1069.74ZM-46.5573 1070.71L-46.6382 1070.15L-43.2958 1069.67L-43.215 1070.23L-46.5573 1070.71ZM-53.2441 1071.67L-53.325 1071.12L-49.9819 1070.63L-49.9018 1071.19L-53.2441 1071.67ZM9.21485 1041.82L9.78981 1038.49L10.3449 1038.59L9.76987 1041.92L9.21485 1041.82ZM106.504 991.692L106.913 991.304L109.23 993.762L108.821 994.149L106.504 991.692ZM-57.4059 1072.27L-58.9214 1069.77L-58.4394 1069.48L-57.1177 1071.66L-56.6672 1071.6L-56.5863 1072.15L-57.4059 1072.27ZM10.3663 1035.17L10.942 1031.84L11.497 1031.93L10.9213 1035.26L10.3663 1035.17ZM101.869 986.777L102.278 986.39L104.595 988.847L104.186 989.234L101.869 986.777ZM-62.4236 1064L-61.9417 1063.71L-60.1902 1066.59L-60.6722 1066.89L-62.4236 1064ZM11.5169 1028.51L12.0926 1025.18L12.6477 1025.28L12.0719 1028.61L11.5169 1028.51ZM97.2352 981.863L97.6445 981.476L99.9618 983.933L99.5525 984.32L97.2352 981.863ZM-65.9272 1058.22L-65.4453 1057.93L-63.6938 1060.82L-64.1758 1061.11L-65.9272 1058.22ZM12.669 1021.85L13.244 1018.52L13.7991 1018.62L13.2241 1021.95L12.669 1021.85ZM92.6006 976.948L93.0099 976.561L95.3279 979.018L94.9186 979.406L92.6006 976.948ZM14.3599 1015.28L17.21 1013.47L17.5121 1013.94L14.6626 1015.76L14.3599 1015.28ZM-69.4295 1052.45L-68.9475 1052.15L-67.196 1055.04L-67.678 1055.33L-69.4295 1052.45ZM20.0587 1011.66L22.9082 1009.84L23.2103 1010.32L20.3608 1012.13L20.0587 1011.66ZM25.7577 1008.03L28.6071 1006.22L28.9093 1006.69L26.0598 1008.5L25.7577 1008.03ZM31.4573 1004.4L34.3074 1002.59L34.6095 1003.07L31.7601 1004.88L31.4573 1004.4ZM0.536344 1017.77L0.512596 1017.21L3.50353 1017.08L3.52728 1017.64L0.536344 1017.77ZM37.1569 1000.78L40.0064 998.964L40.3085 999.438L37.459 1001.25L37.1569 1000.78ZM42.8558 997.15L45.7053 995.337L46.0074 995.812L43.158 997.625L42.8558 997.15ZM87.9659 972.033L88.3752 971.646L90.6926 974.104L90.2832 974.491L87.9659 972.033ZM48.5554 993.524L51.4056 991.711L51.7077 992.186L48.8576 993.999L48.5554 993.524ZM54.2551 989.898L57.1046 988.085L57.4066 988.559L54.5572 990.373L54.2551 989.898ZM-6.21219 1018.05L-6.23595 1017.49L-2.86135 1017.35L-2.8376 1017.91L-6.21219 1018.05ZM59.9547 986.272L62.8041 984.458L63.1063 984.933L60.2568 986.747L59.9547 986.272ZM-72.9324 1046.67L-72.4505 1046.38L-70.699 1049.27L-71.181 1049.56L-72.9324 1046.67ZM65.6536 982.645L68.5031 980.832L68.8052 981.306L65.9557 983.12L65.6536 982.645ZM71.3532 979.019L74.2033 977.206L74.5055 977.681L71.6554 979.494L71.3532 979.019ZM-12.962 1018.34L-12.9858 1017.78L-9.61122 1017.63L-9.58742 1018.2L-12.962 1018.34ZM77.0529 975.393L79.9023 973.579L80.2045 974.054L77.3549 975.868L77.0529 975.393ZM82.7518 971.766L85.602 969.953L85.904 970.428L83.0546 972.241L82.7518 971.766ZM-19.7105 1018.62L-19.7342 1018.06L-16.3604 1017.92L-16.3366 1018.48L-19.7105 1018.62ZM-76.4353 1040.89L-75.9534 1040.6L-74.2019 1043.49L-74.6831 1043.78L-76.4353 1040.89ZM-26.4597 1018.91L-26.4834 1018.35L-23.1089 1018.2L-23.0851 1018.77L-26.4597 1018.91ZM-33.2096 1019.19L-33.2334 1018.63L-29.8588 1018.49L-29.835 1019.05L-33.2096 1019.19ZM-39.9588 1019.48L-39.9826 1018.92L-36.608 1018.77L-36.5842 1019.34L-39.9588 1019.48ZM-79.9383 1035.12L-79.4563 1034.83L-77.7055 1037.71L-78.1867 1038L-79.9383 1035.12ZM-46.7073 1019.76L-46.731 1019.2L-43.3572 1019.06L-43.3334 1019.62L-46.7073 1019.76ZM-53.4565 1020.05L-53.4802 1019.49L-50.1056 1019.34L-50.0819 1019.91L-53.4565 1020.05ZM-83.4404 1029.34L-82.9585 1029.05L-81.207 1031.94L-81.6883 1032.23L-83.4404 1029.34ZM-60.2064 1020.34L-60.2302 1019.77L-56.8556 1019.63L-56.8318 1020.19L-60.2064 1020.34ZM-66.9556 1020.62L-66.9794 1020.06L-63.6048 1019.92L-63.581 1020.48L-66.9556 1020.62ZM-73.7048 1020.91L-73.7286 1020.34L-70.354 1020.2L-70.3302 1020.76L-73.7048 1020.91ZM-86.9434 1023.56L-86.4614 1023.27L-84.7099 1026.16L-85.1919 1026.45L-86.9434 1023.56ZM-80.4539 1021.19L-80.4777 1020.63L-77.1031 1020.48L-77.0793 1021.05L-80.4539 1021.19ZM-87.2024 1021.48L-87.2262 1020.91L-83.8516 1020.77L-83.8279 1021.33L-87.2024 1021.48Z" fill="#08000C"/>
</g>
</g>
</g>
</g>
<g id="Group_6">
<g id="Group_7">
<g id="Group_8">
<g id="Group_9">
<path id="Vector_9" d="M1.10616 1063.55C1.48552 1066.17 3.92118 1068 6.54773 1067.62C9.17353 1067.24 10.9962 1064.8 10.6169 1062.17C10.2382 1059.55 7.80187 1057.73 5.17532 1058.11C2.54943 1058.49 0.727465 1060.92 1.10616 1063.55Z" fill="#08000C"/>
</g>
</g>
</g>
</g>
<g id="Group_10">
<g id="Group_11">
<g id="Group_12">
<g id="Group_13">
<path id="Vector_10" d="M3.4464 1016.88C4.07505 1021.23 8.11712 1024.26 12.4735 1023.63C16.8298 1023 19.8521 1018.96 19.2242 1014.6C18.5963 1010.24 14.5548 1007.22 10.1971 1007.85C5.84076 1008.48 2.81774 1012.52 3.4464 1016.88Z" fill="#08000C"/>
</g>
</g>
</g>
</g>
<g id="Group_14">
<g id="Group_15">
<g id="Group_16">
<g id="Group_17">
<path id="Vector_11" d="M81.5363 970.534C81.915 973.16 84.3513 974.982 86.9778 974.603C89.6044 974.224 91.4263 971.788 91.047 969.161C90.6683 966.536 88.232 964.713 85.6055 965.092C82.9797 965.471 81.1569 967.907 81.5363 970.534Z" fill="#08000C"/>
</g>
</g>
</g>
</g>
<g id="Group_18">
<g id="Group_19">
<g id="Group_20">
<g id="Group_21">
<path id="Vector_12" d="M113.514 1007.51C114.229 1012.47 118.829 1015.91 123.788 1015.19C128.746 1014.48 132.187 1009.88 131.471 1004.92C130.756 999.961 126.156 996.521 121.198 997.236C116.24 997.951 112.799 1002.55 113.514 1007.51Z" fill="#08000C"/>
</g>
</g>
</g>
</g>
</g>
<g id="Group_22" opacity="0.43">
<g id="Group_23">
<g id="Group_24">
<g id="Group_25">
<g id="Group_26">
<g id="Group_27">
<g id="Group_28">
<path id="Vector_13" d="M1785.39 980.819L1785.24 981.254L1786.54 981.706L1786.69 981.27L1785.39 980.819Z" fill="#08000C"/>
</g>
</g>
</g>
</g>
</g>
<g id="Group_29">
<g id="Group_30">
<g id="Group_31">
<g id="Group_32">
<g id="Group_33">
<path id="Vector_14" d="M1816.47 992.082L1813.98 991.22L1814.13 990.785L1816.63 991.647L1816.47 992.082ZM1811.49 990.358L1809 989.496L1809.15 989.06L1811.65 989.922L1811.49 990.358ZM1806.51 988.633L1804.02 987.771L1804.17 987.335L1806.66 988.197L1806.51 988.633ZM1801.53 986.909L1799.04 986.047L1799.19 985.611L1801.68 986.473L1801.53 986.909ZM1796.55 985.185L1794.06 984.323L1794.21 983.887L1796.7 984.749L1796.55 985.185ZM1791.57 983.461L1789.08 982.599L1789.23 982.163L1791.72 983.025L1791.57 983.461Z" fill="#08000C"/>
</g>
</g>
</g>
</g>
</g>
<g id="Group_34">
<g id="Group_35">
<g id="Group_36">
<g id="Group_37">
<g id="Group_38">
<path id="Vector_15" d="M1821.13 992.02L1820.28 992.912L1819.12 992.509L1818.97 992.944L1820.41 993.445L1821.47 992.338L1821.13 992.02Z" fill="#08000C"/>
</g>
</g>
</g>
</g>
</g>
<g id="Group_39">
<g id="Group_40">
<g id="Group_41">
<g id="Group_42">
<g id="Group_43">
<path id="Vector_16" d="M1854.9 957.324L1853.04 959.269L1852.71 958.952L1854.57 957.007L1854.9 957.324ZM1851.19 961.215L1849.33 963.16L1849 962.843L1850.86 960.898L1851.19 961.215ZM1847.47 965.105L1845.62 967.05L1845.28 966.732L1847.14 964.786L1847.47 965.105ZM1843.76 968.996L1841.9 970.941L1841.57 970.623L1843.43 968.677L1843.76 968.996ZM1840.04 972.886L1838.19 974.831L1837.85 974.514L1839.71 972.568L1840.04 972.886ZM1836.33 976.777L1834.47 978.722L1834.14 978.404L1836 976.458L1836.33 976.777ZM1832.61 980.666L1830.76 982.612L1830.42 982.295L1832.28 980.349L1832.61 980.666ZM1828.9 984.557L1827.04 986.503L1826.71 986.185L1828.57 984.24L1828.9 984.557ZM1825.18 988.447L1823.33 990.393L1822.99 990.075L1824.85 988.13L1825.18 988.447Z" fill="#08000C"/>
</g>
</g>
</g>
</g>
</g>
<g id="Group_44">
<g id="Group_45">
<g id="Group_46">
<g id="Group_47">
<g id="Group_48">
<path id="Vector_17" d="M1857.54 953.896L1856.43 955.061L1856.76 955.378L1857.56 954.544L1858.4 955.331L1858.72 954.994L1857.54 953.896Z" fill="#08000C"/>
</g>
</g>
</g>
</g>
</g>
<g id="Group_49">
<g id="Group_50">
<g id="Group_51">
<g id="Group_52">
<g id="Group_53">
<path id="Vector_18" d="M1862.71 958.716L1862.4 959.054L1860.4 957.193L1860.71 956.855L1862.71 958.716ZM1866.7 962.439L1866.39 962.776L1864.39 960.914L1864.71 960.578L1866.7 962.439ZM1870.7 966.161L1870.38 966.499L1868.39 964.638L1868.7 964.3L1870.7 966.161ZM1874.69 969.883L1874.38 970.22L1872.38 968.359L1872.69 968.021L1874.69 969.883ZM1878.69 973.605L1878.37 973.943L1876.37 972.082L1876.69 971.745L1878.69 973.605ZM1882.68 977.328L1882.36 977.666L1880.37 975.804L1880.68 975.467L1882.68 977.328ZM1886.67 981.05L1886.36 981.388L1884.36 979.527L1884.68 979.19L1886.67 981.05ZM1890.67 984.772L1890.35 985.11L1888.35 983.249L1888.67 982.911L1890.67 984.772ZM1894.66 988.495L1894.35 988.831L1892.35 986.97L1892.66 986.633L1894.66 988.495Z" fill="#08000C"/>
</g>
</g>
</g>
</g>
</g>
<g id="Group_54">
<g id="Group_55">
<g id="Group_56">
<g id="Group_57">
<g id="Group_58">
<path id="Vector_19" d="M1896.72 990.337L1896.4 990.674L1897.42 991.616L1897.73 991.279L1896.72 990.337Z" fill="#08000C"/>
</g>
</g>
</g>
</g>
</g>
</g>
<g id="Group_59">
<g id="Group_60">
<g id="Group_61">
<g id="Group_62">
<g id="Group_63">
<path id="Vector_20" d="M1788.36 980.083C1787.76 978.141 1785.7 977.051 1783.76 977.65C1781.81 978.248 1780.72 980.309 1781.32 982.252C1781.92 984.194 1783.98 985.284 1785.92 984.685C1787.87 984.087 1788.96 982.025 1788.36 980.083Z" fill="#08000C"/>
</g>
</g>
</g>
</g>
</g>
<g id="Group_64">
<g id="Group_65">
<g id="Group_66">
<g id="Group_67">
<g id="Group_68">
<path id="Vector_21" d="M1823.95 992.385C1823.35 990.443 1821.29 989.353 1819.35 989.952C1817.41 990.55 1816.32 992.611 1816.92 994.554C1817.52 996.497 1819.58 997.585 1821.52 996.987C1823.46 996.387 1824.55 994.327 1823.95 992.385Z" fill="#08000C"/>
</g>
</g>
</g>
</g>
</g>
<g id="Group_69">
<g id="Group_70">
<g id="Group_71">
<g id="Group_72">
<g id="Group_73">
<path id="Vector_22" d="M1863.72 952.319C1862.67 948.912 1859.05 947.001 1855.64 948.052C1852.24 949.102 1850.33 952.716 1851.38 956.123C1852.43 959.529 1856.04 961.441 1859.45 960.39C1862.85 959.339 1864.77 955.726 1863.72 952.319Z" fill="#08000C"/>
</g>
</g>
</g>
</g>
</g>
<g id="Group_74">
<g id="Group_75">
<g id="Group_76">
<g id="Group_77">
<g id="Group_78">
<path id="Vector_23" d="M1901.03 990.383C1900.43 988.44 1898.37 987.351 1896.43 987.949C1894.48 988.548 1893.39 990.608 1893.99 992.551C1894.59 994.493 1896.65 995.583 1898.59 994.984C1900.54 994.386 1901.63 992.326 1901.03 990.383Z" fill="#08000C"/>
</g>
</g>
</g>
</g>
</g>
</g>
<g id="Group_79" opacity="0.42">
<g id="Group_80">
<path id="Vector_24" d="M163.14 -33.1454L163.166 -32.9686L162.099 -32.8151L162.073 -32.9919L163.14 -33.1454ZM163.777 -28.7006L164.388 -24.4327L163.321 -24.2792L162.71 -28.5472L163.777 -28.7006ZM165 -20.1658L165.612 -15.8979L164.545 -15.7444L163.933 -20.0123L165 -20.1658ZM166.223 -11.6309L166.835 -7.36304L165.768 -7.20956L165.156 -11.4775L166.223 -11.6309ZM167.445 -3.09502L168.057 1.17388L166.99 1.32736L166.378 -2.94154L167.445 -3.09502ZM168.669 5.44077L169.092 8.39564L169.454 9.59103L168.419 9.89687L168.041 8.62531L167.602 5.59425L168.669 5.44077ZM170.681 13.7237L171.908 17.8563L170.875 18.1631L169.648 14.0304L170.681 13.7237ZM173.136 21.9889L174.363 26.1215L173.329 26.4283L172.101 22.2957L173.136 21.9889ZM175.591 30.2541L176.818 34.3867L175.784 34.6935L174.556 30.5609L175.591 30.2541ZM178.046 38.5193L179.273 42.6519L178.24 42.9587L177.013 38.826L178.046 38.5193ZM181.244 46.3219L183.423 50.0415L182.493 50.5864L180.314 46.8669L181.244 46.3219ZM185.603 53.762L187.782 57.4816L186.852 58.0265L184.673 54.307L185.603 53.762ZM189.962 61.2021L192.141 64.9217L191.211 65.4667L189.032 61.7471L189.962 61.2021ZM194.32 68.6413L196.499 72.3619L195.569 72.9068L193.39 69.1873L194.32 68.6413ZM198.678 76.0814L200.857 79.801L199.927 80.3459L197.749 76.6264L198.678 76.0814ZM198.008 78.4761L197.461 79.4047L193.749 77.2122L194.296 76.2836L198.008 78.4761ZM190.584 74.093L190.037 75.0217L186.324 72.8292L186.871 71.9005L190.584 74.093ZM183.16 69.708L182.613 70.6366L178.9 68.4441L179.447 67.5155L183.16 69.708ZM175.734 65.3241L175.187 66.2527L171.476 64.0621L172.023 63.1335L175.734 65.3241ZM168.31 60.94L167.763 61.8686L164.05 59.6762L164.597 58.7475L168.31 60.94ZM160.885 56.5561L160.337 57.4847L159.759 57.1439L156.421 55.9717L156.782 54.9571L160.212 56.1728L160.885 56.5561ZM152.718 53.5162L152.357 54.5307L148.294 53.0907L148.655 52.0761L152.718 53.5162ZM144.591 50.6362L144.23 51.6507L140.166 50.2107L140.527 49.1962L144.591 50.6362ZM136.462 47.7542L136.104 48.7716L132.041 47.3326L132.4 46.3151L136.462 47.7542ZM128.337 44.8772L127.976 45.8917L123.913 44.4517L124.273 43.4371L128.337 44.8772ZM120.209 41.9972L119.849 43.0117L115.785 41.5718L116.145 40.5572L120.209 41.9972ZM112.081 39.1172L111.721 40.1318L107.657 38.6918L108.017 37.6773L112.081 39.1172Z" fill="#08000C"/>
</g>
<g id="Group_81">
<path id="Vector_25" d="M103.21 33.8116C105.984 32.1866 109.55 33.1177 111.175 35.8919C112.8 38.6661 111.869 42.2316 109.095 43.8566C106.32 45.4815 102.755 44.5505 101.13 41.7762C99.5049 39.002 100.437 35.4364 103.21 33.8116Z" fill="#08000C"/>
</g>
<g id="Group_82">
<path id="Vector_26" d="M157.585 52.5743C159.592 51.3984 162.172 52.0723 163.347 54.0792C164.523 56.086 163.849 58.6663 161.842 59.8412C159.836 61.0172 157.255 60.3433 156.08 58.3363C154.905 56.3294 155.578 53.7503 157.585 52.5743Z" fill="#08000C"/>
</g>
<g id="Group_83">
<path id="Vector_27" d="M199.166 75.9407C201.307 74.6865 204.06 75.4051 205.314 77.5465C206.568 79.6879 205.849 82.4402 203.708 83.6943C201.567 84.9485 198.814 84.2299 197.56 82.0885C196.306 79.9481 197.026 77.1958 199.166 75.9407Z" fill="#08000C"/>
</g>
<g id="Group_84">
<path id="Vector_28" d="M176.796 39.0694C178.62 38.0007 180.965 38.6136 182.034 40.4376C183.103 42.2616 182.49 44.6067 180.666 45.6755C178.842 46.7442 176.497 46.1313 175.428 44.3073C174.36 42.4833 174.972 40.1382 176.796 39.0694Z" fill="#08000C"/>
</g>
<g id="Group_85">
<path id="Vector_29" d="M164.536 -1.45999C167.041 -2.92745 170.261 -2.08681 171.729 0.418401C173.196 2.92361 172.355 6.14413 169.85 7.61153C167.345 9.079 164.125 8.23832 162.657 5.73312C161.19 3.22791 162.03 0.00748127 164.536 -1.45999Z" fill="#08000C"/>
</g>
</g>
<g id="Group_86" opacity="0.43">
<g id="Group_87">
<g id="Group_88">
<g id="Group_89">
<g id="Group_90">
<path id="Vector_30" d="M-72.2288 646.924L-72.5657 647.375L-75.27 645.351L-74.9331 644.9L-72.2288 646.924ZM36.2951 569.657L36.4694 570.192L33.2584 571.239L33.084 570.704L36.2951 569.657ZM31.2304 572.736L31.2338 576.114L30.6705 576.114L30.667 572.736L31.2304 572.736ZM42.7161 567.56L42.8911 568.094L39.6809 569.142L39.5058 568.608L42.7161 567.56ZM-66.8202 650.972L-67.1571 651.424L-69.8614 649.399L-69.5245 648.948L-66.8202 650.972ZM49.1385 565.464L49.3129 565.999L46.1027 567.046L45.9283 566.511L49.1385 565.464ZM31.2372 579.491L31.2406 582.869L30.6773 582.87L30.6738 579.491L31.2372 579.491ZM55.5596 563.367L55.734 563.902L52.5237 564.95L52.3494 564.415L55.5596 563.367ZM61.9821 561.271L62.1564 561.806L58.9463 562.854L58.7718 562.319L61.9821 561.271ZM68.4031 559.174L68.5782 559.709L65.3673 560.757L65.1929 560.222L68.4031 559.174ZM-61.4117 655.019L-61.7486 655.471L-64.4536 653.447L-64.1167 652.996L-61.4117 655.019ZM31.2439 586.246L31.2479 589.624L30.6846 589.624L30.6805 586.247L31.2439 586.246ZM74.8256 557.078L75 557.613L71.7898 558.661L71.6154 558.126L74.8256 557.078ZM81.2466 554.982L81.4217 555.516L78.2114 556.564L78.0364 556.029L81.2466 554.982ZM87.6691 552.885L87.8441 553.419L84.6333 554.468L84.4589 553.933L87.6691 552.885ZM31.252 593.001L31.2561 596.379L30.6927 596.379L30.6887 593.002L31.252 593.001ZM-56.003 659.067L-56.3399 659.519L-59.0443 657.495L-58.7073 657.043L-56.003 659.067ZM91.6664 551.581L93.5879 553.783L93.1632 554.154L91.4872 552.232L91.0545 552.373L90.8794 551.839L91.6664 551.581ZM31.2588 599.757L31.2623 603.135L30.699 603.136L30.6955 599.757L31.2588 599.757ZM-50.5946 663.114L-50.9315 663.566L-53.635 661.542L-53.2981 661.091L-50.5946 663.114ZM98.0283 558.872L97.6036 559.243L95.383 556.698L95.8077 556.327L98.0283 558.872ZM31.2661 606.511L31.2696 609.89L30.7063 609.89L30.7028 606.512L31.2661 606.511ZM-45.1867 667.162L-45.5236 667.613L-48.2279 665.589L-47.891 665.138L-45.1867 667.162ZM102.47 563.963L102.046 564.334L99.825 561.789L100.25 561.418L102.47 563.963ZM31.2723 613.267L31.2764 616.645L30.7131 616.645L30.709 613.268L31.2723 613.267ZM-39.7782 671.209L-40.1151 671.66L-42.8201 669.637L-42.4832 669.185L-39.7782 671.209ZM30.7329 620.03L28.2357 622.305L27.8566 621.889L30.3531 619.614L30.7329 620.03ZM106.911 569.052L106.486 569.423L104.265 566.878L104.69 566.507L106.911 569.052ZM25.7399 624.579L23.2435 626.854L22.8644 626.438L25.3609 624.163L25.7399 624.579ZM20.747 629.129L18.2506 631.404L17.8716 630.988L20.368 628.713L20.747 629.129ZM15.7534 633.679L13.2562 635.953L12.8772 635.537L15.3736 633.262L15.7534 633.679ZM43.9255 615.211L44.0454 615.761L41.1203 616.398L41.0004 615.848L43.9255 615.211ZM10.7598 638.228L8.26337 640.503L7.88434 640.087L10.3807 637.812L10.7598 638.228ZM5.76696 642.778L3.27052 645.054L2.89149 644.638L5.3879 642.363L5.76696 642.778ZM-34.3695 675.257L-34.7064 675.709L-37.4108 673.685L-37.0738 673.233L-34.3695 675.257ZM0.773357 647.328L-1.72385 649.602L-2.10292 649.186L0.394284 646.912L0.773357 647.328ZM-4.2203 651.877L-6.71675 654.153L-7.09573 653.737L-4.59932 651.462L-4.2203 651.877ZM50.5251 613.773L50.645 614.323L47.3448 615.042L47.2249 614.492L50.5251 613.773ZM-9.21391 656.427L-11.7103 658.702L-12.0894 658.286L-9.59298 656.011L-9.21391 656.427ZM111.352 574.143L110.927 574.513L108.707 571.968L109.131 571.597L111.352 574.143ZM-14.2067 660.977L-16.7032 663.252L-17.0822 662.836L-14.5858 660.561L-14.2067 660.977ZM-19.2004 665.527L-21.6975 667.801L-22.0766 667.385L-19.5794 665.111L-19.2004 665.527ZM57.1263 612.335L57.2461 612.885L53.946 613.604L53.8261 613.054L57.1263 612.335ZM-24.194 670.076L-26.6904 672.351L-27.0695 671.935L-24.573 669.66L-24.194 670.076ZM-29.1868 674.626L-31.6841 676.901L-32.0631 676.485L-29.5667 674.21L-29.1868 674.626ZM63.726 610.898L63.8459 611.448L60.5463 612.166L60.4265 611.616L63.726 610.898ZM115.793 579.233L115.369 579.603L113.148 577.058L113.572 576.688L115.793 579.233ZM70.3264 609.46L70.4463 610.01L67.1461 610.729L67.0262 610.179L70.3264 609.46ZM76.9274 608.021L77.0473 608.571L73.7471 609.29L73.6272 608.74L76.9274 608.021ZM83.5278 606.583L83.6477 607.133L80.3475 607.852L80.2276 607.302L83.5278 606.583ZM120.235 584.323L119.81 584.693L117.59 582.149L118.014 581.779L120.235 584.323ZM90.1276 605.146L90.2474 605.696L86.9478 606.414L86.828 605.864L90.1276 605.146ZM96.7279 603.708L96.8478 604.258L93.5476 604.977L93.4277 604.427L96.7279 603.708ZM124.675 589.414L124.251 589.784L122.03 587.239L122.454 586.869L124.675 589.414ZM103.329 602.269L103.449 602.819L100.149 603.538L100.029 602.988L103.329 602.269ZM109.929 600.831L110.049 601.381L106.749 602.1L106.629 601.55L109.929 600.831ZM116.53 599.393L116.65 599.943L113.349 600.662L113.23 600.112L116.53 599.393ZM129.117 594.504L128.692 594.874L126.471 592.329L126.896 591.959L129.117 594.504ZM123.13 597.956L123.25 598.506L119.95 599.225L119.83 598.675L123.13 597.956ZM129.73 596.517L129.85 597.068L126.55 597.787L126.43 597.236L129.73 596.517Z" fill="#08000C"/>
</g>
</g>
</g>
</g>
<g id="Group_91">
<g id="Group_92">
<g id="Group_93">
<g id="Group_94">
<path id="Vector_31" d="M134.912 594.383C134.088 591.861 131.376 590.483 128.853 591.307C126.331 592.13 124.953 594.842 125.777 597.365C126.601 599.888 129.313 601.265 131.835 600.441C134.358 599.617 135.735 596.905 134.912 594.383Z" fill="#08000C"/>
</g>
</g>
</g>
</g>
<g id="Group_95">
<g id="Group_96">
<g id="Group_97">
<g id="Group_98">
<path id="Vector_32" d="M96.144 550.414C95.3208 547.892 92.608 546.514 90.0854 547.338C87.5634 548.161 86.1853 550.874 87.0093 553.397C87.8325 555.919 90.5453 557.297 93.0679 556.473C95.5899 555.65 96.9672 552.936 96.144 550.414Z" fill="#08000C"/>
</g>
</g>
</g>
</g>
<g id="Group_99">
<g id="Group_100">
<g id="Group_101">
<g id="Group_102">
<path id="Vector_33" d="M35.5154 570.208C34.6914 567.685 31.9795 566.307 29.4568 567.131C26.9348 567.955 25.5568 570.667 26.3808 573.19C27.204 575.712 29.9167 577.09 32.4393 576.266C34.9612 575.441 36.3386 572.73 35.5154 570.208Z" fill="#08000C"/>
</g>
</g>
</g>
</g>
<g id="Group_103">
<g id="Group_104">
<g id="Group_105">
<g id="Group_106">
<path id="Vector_34" d="M41.2126 616.587C39.8464 612.403 35.346 610.117 31.1619 611.484C26.9778 612.85 24.6931 617.349 26.0586 621.534C27.4241 625.719 31.9238 628.004 36.1093 626.637C40.2934 625.271 42.5787 620.771 41.2126 616.587Z" fill="#08000C"/>
</g>
</g>
</g>
</g>
</g>
</g>
<g id="Orbits">
<g id="Group_107">
<g id="Group_108">
<path id="Vector_35" d="M1211.54 573.905C1171 573.905 1141.53 563.673 1137.03 545.027C1133.62 530.926 1144.66 514.293 1168.13 498.192C1191.39 482.237 1224.13 468.631 1260.32 459.88C1335.28 441.758 1401.93 450.473 1408.9 479.302C1412.31 493.405 1401.27 510.038 1377.8 526.138C1354.54 542.094 1321.8 555.702 1285.6 564.451C1259.13 570.852 1233.68 573.905 1211.54 573.905ZM1334.89 451.915C1312.79 451.915 1287.28 454.981 1260.69 461.407C1224.68 470.113 1192.12 483.639 1169.02 499.488C1146.13 515.193 1135.31 531.235 1138.55 544.657C1145.32 572.644 1211.12 580.837 1285.24 562.922C1321.25 554.216 1353.81 540.692 1376.91 524.842C1399.8 509.136 1410.62 493.094 1407.38 479.672C1403.04 461.725 1374.41 451.915 1334.89 451.915Z" fill="#E0E0E0"/>
</g>
<g id="Group_109">
<path id="Vector_36" d="M1204.87 595.917C1184.16 595.917 1164.77 594.204 1147.51 590.764C1108.74 583.033 1085.3 567.47 1081.51 546.941C1077.71 526.412 1094.05 503.5 1127.49 482.425C1160.73 461.483 1206.97 444.787 1257.69 435.415C1362.62 416.025 1454.31 434.509 1462.1 476.618C1469.88 518.724 1390.84 568.754 1285.91 588.142C1257.91 593.316 1230.39 595.917 1204.87 595.917ZM1338.74 429.237C1313.75 429.237 1286.36 431.717 1257.98 436.961C1207.45 446.297 1161.41 462.916 1128.33 483.755C1095.47 504.463 1079.38 526.801 1083.05 546.655C1086.72 566.508 1109.72 581.624 1147.82 589.22C1186.15 596.868 1235.1 595.934 1285.62 586.597C1389.7 567.366 1468.17 518.157 1460.55 476.904C1455 446.899 1405.41 429.237 1338.74 429.237Z" fill="#E0E0E0"/>
</g>
<g id="Group_110">
<path id="Vector_37" d="M1173.6 624.354C1093.43 624.354 1034.29 603.187 1026.15 565.881C1020.39 539.458 1040.63 509.083 1083.14 480.354C1125.44 451.764 1184.82 428.148 1250.32 413.858C1385.77 384.306 1505.6 404.428 1517.44 458.707C1529.28 512.985 1428.72 581.183 1293.27 610.732C1250.92 619.971 1210.08 624.354 1173.6 624.354ZM1370.45 401.741C1333.99 401.741 1293.1 406.133 1250.66 415.392C1185.34 429.641 1126.16 453.174 1084.02 481.655C1042.08 510.001 1022.07 539.793 1027.69 565.545C1039.35 618.977 1158.34 638.557 1292.94 609.194C1427.54 579.828 1527.56 512.47 1515.9 459.039C1507.92 422.457 1449.62 401.741 1370.45 401.741Z" fill="#E0E0E0"/>
</g>
<g id="Group_111">
<path id="Vector_38" d="M1148.38 648.664C1051.63 648.664 980.761 623.933 971.178 580.005C964.305 548.498 989.46 512.047 1042.01 477.368C1094.35 442.828 1167.67 414.099 1248.47 396.473C1329.27 378.848 1407.89 374.429 1469.86 384.033C1532.08 393.675 1570.13 416.337 1577 447.843C1583.88 479.349 1558.72 515.801 1506.17 550.48C1453.83 585.02 1380.51 613.749 1299.71 631.375C1245.98 643.097 1194.26 648.664 1148.38 648.664ZM1400.3 380.685C1354.42 380.685 1302.65 386.262 1248.8 398.008C1082.62 434.261 958.77 515.755 972.714 579.67C986.658 643.585 1133.2 666.087 1299.38 629.838C1465.56 593.586 1589.41 512.091 1575.47 448.176C1566.04 404.974 1496.01 380.685 1400.3 380.685Z" fill="#E0E0E0"/>
</g>
<g id="Group_112">
<path id="Vector_39" d="M1115.15 678.588C1086.02 678.588 1058.52 676.77 1033.26 673.092C956.69 661.94 909.982 634.993 901.738 597.215C893.496 559.437 924.738 515.483 989.71 473.454C1054.46 431.564 1145.04 396.512 1244.77 374.759C1344.49 353.004 1441.44 347.146 1517.75 358.259C1594.33 369.412 1641.03 396.36 1649.28 434.138C1657.52 471.916 1626.28 515.87 1561.31 557.9C1496.55 599.789 1405.97 634.839 1306.25 656.594C1239.53 671.15 1174.04 678.588 1115.15 678.588ZM1436.02 354.396C1378.47 354.396 1313.14 361.451 1245.1 376.293C1145.56 398.009 1055.17 432.983 990.566 474.772C926.186 516.422 895.184 559.787 903.277 596.88C920.042 673.734 1100.67 699.833 1305.92 655.059C1511.17 610.283 1664.51 511.328 1647.74 434.471C1636.53 383.092 1552.09 354.396 1436.02 354.396Z" fill="#E0E0E0"/>
</g>
<g id="Group_113">
<path id="Vector_40" d="M1086.78 705.933C1051.67 705.933 1018.52 703.695 988.115 699.17C897.406 685.668 842.029 653.391 832.189 608.28C822.347 563.172 859.249 510.763 936.094 460.71C1012.72 410.796 1119.98 369.117 1238.09 343.348C1356.21 317.581 1471.08 310.803 1561.53 324.266C1652.25 337.767 1707.62 370.046 1717.46 415.156C1727.3 460.266 1690.4 512.674 1613.56 562.729C1536.93 612.642 1429.67 654.321 1311.56 680.089C1233.14 697.195 1156.14 705.932 1086.78 705.933ZM1462.86 319.075C1393.61 319.075 1316.75 327.8 1238.43 344.885C995.206 397.945 813.654 515.954 833.723 607.946C843.416 652.372 898.327 684.217 988.346 697.616C1078.62 711.049 1193.28 704.28 1311.22 678.553C1429.16 652.825 1536.22 611.223 1612.7 561.411C1688.96 511.739 1725.62 459.918 1715.93 415.491C1706.24 371.065 1651.32 339.219 1561.3 325.822C1530.98 321.309 1497.89 319.075 1462.86 319.075Z" fill="#E0E0E0"/>
</g>
<g id="Group_114">
<path id="Vector_41" d="M1057.97 760.448C1011.36 760.45 967.42 757.206 927.311 750.655C815.326 732.361 746.703 690.435 734.086 632.6C721.469 574.766 766.395 508.069 860.587 444.796C954.573 381.664 1086.43 329.421 1231.87 297.692C1377.32 265.963 1518.95 258.542 1630.69 276.795C1742.68 295.088 1811.3 337.014 1823.91 394.85C1836.53 452.686 1791.61 519.382 1697.41 582.652C1603.43 645.785 1471.57 698.027 1326.13 729.756C1232.89 750.097 1141.2 760.446 1057.97 760.448ZM1500.03 268.571C1416.9 268.571 1325.35 278.909 1232.21 299.228C932.587 364.592 709.819 513.991 735.621 632.265C761.424 750.537 1026.17 793.588 1325.8 728.222C1471.05 696.534 1602.71 644.374 1696.54 581.35C1790.16 518.462 1834.85 452.348 1822.38 395.186C1809.91 338.023 1741.74 296.529 1630.44 278.348C1590.42 271.81 1546.54 268.571 1500.03 268.571Z" fill="#E0E0E0"/>
</g>
</g>
</g>
<g id="planet2">
<path id="Vector_184" opacity="0.03" d="M860.694 829.827C905.337 846.011 954.642 822.944 970.829 778.305C987.011 733.665 963.947 684.357 919.304 668.172C874.665 651.987 825.359 675.055 809.173 719.694C792.986 764.334 816.055 813.642 860.694 829.827Z" fill="white"/>
<path id="Vector_185" opacity="0.03" d="M867.513 809.665C900.595 821.659 937.137 804.565 949.132 771.484C961.126 738.403 944.029 701.862 910.947 689.868C877.869 677.874 841.327 694.969 829.333 728.05C817.338 761.131 834.435 797.671 867.513 809.665Z" fill="white"/>
<g id="Group_115">
<path id="Vector_42" d="M936.641 768.732C925.738 794.496 896.016 806.544 870.25 795.639C844.486 784.739 832.44 755.014 843.343 729.25C854.245 703.486 883.97 691.436 909.734 702.341C935.502 713.244 947.544 742.968 936.641 768.732Z" fill="#EF4136"/>
<path id="Vector_43" opacity="0.3" d="M936.666 768.731C942.147 755.781 941.828 741.828 936.883 729.768C925.867 743.091 886.241 784.919 840.637 760.292C844.153 775.597 854.708 789.051 870.275 795.638C896.041 806.543 925.763 794.494 936.666 768.731Z" fill="#414042"/>
<g id="Group_116">
<path id="Vector_44" opacity="0.4" d="M906.452 728.275C902.214 738.29 890.652 742.978 880.635 738.74C870.611 734.5 865.929 722.935 870.167 712.919C874.408 702.895 885.968 698.213 895.991 702.453C906.008 706.693 910.693 718.253 906.452 728.275Z" fill="white"/>
</g>
</g>
</g>
<g id="sun">
<g id="Group_316">
<path id="Vector_184_2" opacity="0.03" d="M1168.33 598.466C1285.12 640.809 1414.12 580.458 1456.47 463.669C1498.81 346.879 1438.47 217.875 1321.67 175.531C1204.88 133.188 1075.88 193.538 1033.53 310.329C991.184 427.118 1051.54 556.121 1168.33 598.466Z" fill="white"/>
</g>
<g id="Group 71">
<path id="Vector_45" d="M1001.08 307.156C1009.96 307.156 1017.16 299.958 1017.16 291.078C1017.16 282.198 1009.96 275 1001.08 275C992.198 275 985 282.198 985 291.078C985 299.958 992.198 307.156 1001.08 307.156Z" stroke="white" stroke-opacity="0.25" stroke-width="1.4173" stroke-miterlimit="10"/>
<path id="Vector_46" d="M1017 257C1035.78 257 1051 241.778 1051 223C1051 204.222 1035.78 189 1017 189C998.222 189 983 204.222 983 223C983 241.778 998.222 257 1017 257Z" stroke="white" stroke-opacity="0.25" stroke-width="1.4173" stroke-miterlimit="10"/>
<path id="Vector_47" d="M981.25 259.625C981.25 262.732 978.732 265.25 975.625 265.25C972.518 265.25 970 262.732 970 259.625C970 256.518 972.518 254 975.625 254C978.732 254 981.25 256.518 981.25 259.625Z" fill="white" fill-opacity="0.62"/>
</g>
<path id="Vector_48" d="M1407.89 387.497C1407.89 477.169 1335.2 549.86 1245.53 549.86C1155.86 549.86 1083.17 477.169 1083.17 387.497C1083.17 297.829 1155.86 225.138 1245.53 225.138C1335.2 225.138 1407.89 297.829 1407.89 387.497Z" fill="#F9C041"/>
<path id="Vector_185_2" opacity="0.03" d="M1176.73 575.349C1280.75 613.063 1395.65 559.311 1433.37 455.29C1471.08 351.27 1417.32 236.371 1313.3 198.657C1209.29 160.943 1094.39 214.694 1056.67 318.716C1018.96 422.736 1072.71 537.635 1176.73 575.349Z" fill="white"/>
<path id="Vector_49" d="M1407.88 387.502C1407.88 342.429 1389.51 301.648 1359.85 272.23C1343.97 325.313 1279.27 498.274 1113.88 482.549C1143.38 523.327 1191.34 549.864 1245.52 549.864C1335.19 549.864 1407.88 477.173 1407.88 387.502Z" fill="#F7941E"/>
<g id="Group_117">
<path id="Vector_50" opacity="0.4" d="M1268.34 305.722C1268.34 340.593 1240.07 368.862 1205.2 368.862C1170.33 368.862 1142.06 340.593 1142.06 305.722C1142.06 270.849 1170.33 242.581 1205.2 242.581C1240.07 242.581 1268.34 270.849 1268.34 305.722Z" fill="white"/>
<path id="Vector_51" opacity="0.4" d="M1177.55 343.608C1177.55 359.219 1164.9 371.872 1149.29 371.872C1133.67 371.872 1121.02 359.219 1121.02 343.608C1121.02 327.998 1133.67 315.347 1149.29 315.347C1164.9 315.347 1177.55 327.998 1177.55 343.608Z" fill="white"/>
</g>
</g>
<g id="planet1">
<g id="Group_118">
<path id="Vector_52" d="M1894.85 391.288C1890.05 428.005 1856.39 453.875 1819.67 449.072C1782.95 444.266 1757.09 410.607 1761.89 373.89C1766.69 337.173 1800.35 311.302 1837.07 316.108C1873.79 320.911 1899.66 354.571 1894.85 391.288Z" fill="#196EA5"/>
<path id="Vector_53" d="M1766.87 355.886L1894.67 372.611C1895.58 378.657 1895.68 384.927 1894.85 391.288C1894.55 393.626 1894.12 395.914 1893.59 398.159L1761.34 380.855C1761.4 378.549 1761.58 376.228 1761.89 373.89C1762.72 367.527 1764.44 361.496 1766.87 355.886ZM1767.16 409.963C1769.78 415.796 1773.2 421.217 1777.33 426.06L1866.51 437.729C1871.74 434.112 1876.44 429.753 1880.47 424.79L1767.16 409.963ZM1782.47 333.715C1778.28 337.64 1774.6 342.121 1771.52 347.046L1892.45 362.87C1890.74 357.317 1888.34 352.039 1885.3 347.168L1782.47 333.715ZM1761.65 389.163C1761.95 392.237 1762.46 395.265 1763.16 398.222L1887.35 414.472C1888.8 411.799 1890.07 409.003 1891.15 406.109L1761.65 389.163Z" fill="#27AAE1"/>
<path id="Vector_54" opacity="0.3" d="M1894.86 391.287C1897.28 372.832 1891.94 355.147 1881.37 341.516C1872.02 362.396 1836.26 429.754 1769.39 414.455C1779.28 432.73 1797.5 446.168 1819.68 449.071C1856.4 453.875 1890.06 428.002 1894.86 391.287Z" fill="#414042"/>
<g id="Group_119">
<path id="Vector_55" opacity="0.4" d="M1802.9 360.973C1802.06 367.368 1796.2 371.871 1789.81 371.035C1783.42 370.199 1778.91 364.34 1779.75 357.945C1780.59 351.551 1786.44 347.051 1792.84 347.887C1799.23 348.724 1803.74 354.579 1802.9 360.973Z" fill="white"/>
</g>
</g>
<path id="Vector_184_3" opacity="0.03" d="M1796.65 469.466C1844.41 486.78 1897.15 462.103 1914.47 414.349C1931.78 366.595 1907.11 313.847 1859.35 296.533C1811.6 279.219 1758.85 303.896 1741.53 351.65C1724.22 399.404 1748.9 452.152 1796.65 469.466Z" fill="white"/>
<path id="Vector_185_3" opacity="0.03" d="M1800.84 457.118C1842.22 472.124 1887.94 450.737 1902.95 409.351C1917.95 367.964 1896.56 322.249 1855.18 307.244C1813.79 292.239 1768.08 313.625 1753.07 355.012C1738.06 396.398 1759.45 442.113 1800.84 457.118Z" fill="white"/>
</g>
<g id="Group_120">
<path id="Vector_184_4" opacity="0.03" d="M1403.03 1019.15C1470.77 1043.71 1545.59 1008.71 1570.15 940.968C1594.71 873.23 1559.71 798.408 1491.97 773.848C1424.23 749.289 1349.41 784.292 1324.85 852.031C1300.29 919.768 1335.29 994.59 1403.03 1019.15Z" fill="white"/>
<path id="Vector_185_4" opacity="0.03" d="M1408.48 1002.34C1466.69 1023.44 1530.99 993.363 1552.1 935.15C1573.2 876.938 1543.12 812.638 1484.91 791.533C1426.7 770.427 1362.4 800.508 1341.29 858.72C1320.18 916.932 1350.27 981.232 1408.48 1002.34Z" fill="white"/>
<path id="Vector_56" d="M1447.1 997.638C1502.28 997.638 1547.01 952.905 1547.01 897.724C1547.01 842.543 1502.28 797.81 1447.1 797.81C1391.91 797.81 1347.18 842.543 1347.18 897.724C1347.18 952.905 1391.91 997.638 1447.1 997.638Z" fill="#3BBC7B"/>
<path id="Vector_57" d="M1447.09 892.773C1486.26 892.773 1518.02 872.719 1518.02 847.98C1518.02 823.242 1486.26 803.187 1447.09 803.187C1407.93 803.187 1376.17 823.242 1376.17 847.98C1376.17 872.719 1407.93 892.773 1447.09 892.773Z" fill="#48D38A"/>
<path id="Vector_58" d="M1447.1 957.512C1398.79 957.512 1358.49 923.227 1349.2 877.66C1347.88 884.142 1347.18 890.851 1347.18 897.723C1347.18 952.904 1391.91 997.637 1447.1 997.637C1502.28 997.637 1547.01 952.904 1547.01 897.723C1547.01 890.851 1546.32 884.141 1544.99 877.66C1535.71 923.227 1495.41 957.512 1447.1 957.512Z" fill="#0B7D5B"/>
</g>
</g>
</g>
</svg>
