<svg width="1920" height="1080" viewBox="0 0 1920 1080" fill="none" xmlns="http://www.w3.org/2000/svg">
<mask id="mask0_462_3179" style="mask-type:alpha" maskUnits="userSpaceOnUse" x="0" y="0" width="1920" height="1080">
<path d="M0 0H1920V1080H0V0Z" fill="#04080F"/>
</mask>
<g mask="url(#mask0_462_3179)">
<path d="M0 0H1920V1080H0V0Z" fill="#090D16"/>
<path d="M175.286 1714.12C175.259 1714.12 175.236 1714.11 175.236 1714.11C171.351 1713.26 167.472 1712.4 163.601 1711.52C160.424 1710.8 157.78 1708.58 157.682 1706.56C157.585 1704.56 160.019 1703.51 163.126 1704.16C163.176 1704.18 163.215 1704.18 163.266 1704.19C167.089 1705.06 170.915 1705.91 174.749 1706.74C177.924 1707.44 180.6 1709.64 180.737 1711.68C180.864 1713.7 178.431 1714.79 175.286 1714.12ZM244.39 1727.36C241.411 1726.73 238.77 1724.72 238.397 1722.73C237.991 1720.64 240.232 1719.38 243.379 1719.9C247.184 1720.52 250.979 1721.14 254.767 1721.73C257.899 1722.22 260.82 1724.32 261.265 1726.41C261.709 1728.5 259.511 1729.79 256.367 1729.3C252.526 1728.7 248.678 1728.08 244.823 1727.45C244.669 1727.42 244.529 1727.39 244.39 1727.36ZM94.3293 1694.01C94.1249 1693.97 93.914 1693.92 93.703 1693.86C89.8144 1692.77 85.9309 1691.68 82.0556 1690.56C78.8823 1689.65 76.4957 1687.33 76.7095 1685.38C76.9233 1683.44 79.6724 1682.6 82.843 1683.52C86.6706 1684.62 90.4913 1685.7 94.3295 1686.77C97.4987 1687.66 99.9322 1689.96 99.7569 1691.91C99.6 1693.75 97.2222 1694.62 94.3293 1694.01ZM324.072 1738.02C321.333 1737.44 318.795 1735.65 318.168 1733.76C317.463 1731.63 319.399 1730.16 322.5 1730.48C326.235 1730.86 329.963 1731.21 333.682 1731.56C336.767 1731.85 339.87 1733.8 340.628 1735.93C341.373 1738.06 339.483 1739.55 336.396 1739.27C332.623 1738.92 328.854 1738.56 325.066 1738.18C324.726 1738.13 324.392 1738.07 324.072 1738.02ZM13.8085 1669.03C13.4171 1668.94 13.0192 1668.83 12.6197 1668.7C8.76528 1667.38 4.93048 1666.05 1.10127 1664.7C-2.02714 1663.6 -4.14069 1661.22 -3.611 1659.38C-3.0813 1657.53 -0.110121 1656.94 3.00898 1658.03C6.79041 1659.36 10.5771 1660.67 14.3717 1661.96C17.5107 1663.04 19.6682 1665.41 19.1863 1667.27C18.7651 1668.9 16.4706 1669.59 13.8085 1669.03ZM401.981 1743.33C399.47 1742.8 397.068 1741.24 396.232 1739.45C395.221 1737.3 396.842 1735.65 399.861 1735.76C403.488 1735.88 407.094 1735.99 410.694 1736.08C413.696 1736.15 416.966 1737.95 418.021 1740.09C419.073 1742.24 417.496 1743.92 414.494 1743.85C410.853 1743.76 407.191 1743.65 403.511 1743.52C403.008 1743.51 402.488 1743.44 401.981 1743.33ZM-65.4921 1639.37C-66.0614 1639.24 -66.6387 1639.07 -67.2334 1638.83C-71.0031 1637.3 -74.7557 1635.75 -78.5149 1634.19C-81.5771 1632.92 -83.3817 1630.48 -82.5534 1628.75C-81.7131 1627.03 -78.5652 1626.65 -75.4936 1627.94C-71.7942 1629.48 -68.0896 1631 -64.3769 1632.51C-61.3067 1633.76 -59.4438 1636.19 -60.239 1637.94C-60.878 1639.35 -63.0556 1639.88 -65.4921 1639.37ZM477.287 1743.26C474.98 1742.76 472.731 1741.41 471.736 1739.76C470.434 1737.61 471.728 1735.78 474.635 1735.67C478.113 1735.54 481.597 1735.4 485.05 1735.22C487.917 1735.08 491.349 1736.71 492.692 1738.85C494.035 1740.99 492.789 1742.84 489.91 1742.98C486.401 1743.16 482.876 1743.3 479.342 1743.44C478.671 1743.47 477.971 1743.4 477.287 1743.26ZM-142.8 1605.31C-143.547 1605.15 -144.325 1604.89 -145.081 1604.54C-148.733 1602.8 -152.379 1601.05 -155.994 1599.29C-158.964 1597.85 -160.446 1595.39 -159.327 1593.8C-158.193 1592.21 -154.87 1592.09 -151.912 1593.53C-148.331 1595.27 -144.741 1596.99 -141.137 1598.7C-138.157 1600.12 -136.621 1602.58 -137.707 1604.19C-138.511 1605.39 -140.568 1605.78 -142.8 1605.31ZM549.344 1737.79C547.251 1737.35 545.165 1736.18 544.044 1734.67C542.461 1732.55 543.426 1730.58 546.17 1730.25C549.485 1729.86 552.793 1729.46 556.08 1729.04C558.806 1728.69 562.34 1730.13 563.954 1732.25C565.569 1734.36 564.661 1736.36 561.935 1736.71C558.605 1737.14 555.253 1737.55 551.894 1737.94C551.087 1738.04 550.206 1737.97 549.344 1737.79ZM-217.355 1567.2C-218.292 1567 -219.244 1566.65 -220.15 1566.16C-223.648 1564.23 -227.141 1562.3 -230.616 1560.36C-233.46 1558.76 -234.614 1556.31 -233.195 1554.86C-231.775 1553.42 -228.315 1553.55 -225.481 1555.13C-222.05 1557.05 -218.614 1558.95 -215.159 1560.84C-212.292 1562.41 -211.1 1564.87 -212.472 1566.34C-213.412 1567.36 -215.328 1567.63 -217.355 1567.2ZM617.457 1727C615.557 1726.59 613.649 1725.6 612.464 1724.26C610.619 1722.18 611.225 1720.07 613.814 1719.54C616.937 1718.9 620.028 1718.25 623.123 1717.58C625.681 1717.02 629.279 1718.26 631.156 1720.33C633.034 1722.4 632.475 1724.53 629.917 1725.09C626.79 1725.76 623.643 1726.43 620.489 1727.07C619.563 1727.27 618.51 1727.22 617.457 1727ZM-288.444 1525.42C-289.559 1525.18 -290.706 1524.74 -291.732 1524.09C-295.056 1522 -298.353 1519.91 -301.642 1517.8C-304.326 1516.08 -305.144 1513.64 -303.445 1512.36C-301.76 1511.08 -298.199 1511.45 -295.514 1513.17C-292.28 1515.24 -289.016 1517.31 -285.75 1519.37C-283.033 1521.08 -282.174 1523.52 -283.829 1524.82C-284.864 1525.63 -286.618 1525.8 -288.444 1525.42ZM680.988 1711.01C679.289 1710.65 677.555 1709.81 676.348 1708.64C674.258 1706.62 674.51 1704.39 676.903 1703.66C679.791 1702.78 682.658 1701.89 685.504 1700.98C687.866 1700.22 691.505 1701.24 693.626 1703.25C695.748 1705.25 695.544 1707.5 693.182 1708.25C690.292 1709.17 687.39 1710.09 684.458 1710.97C683.461 1711.28 682.23 1711.28 680.988 1711.01ZM-355.416 1480.38C-356.72 1480.1 -358.054 1479.54 -359.172 1478.74C-362.276 1476.5 -365.364 1474.27 -368.436 1472.02C-370.938 1470.18 -371.404 1467.79 -369.456 1466.68C-367.509 1465.58 -363.899 1466.18 -361.385 1468.02C-358.356 1470.23 -355.313 1472.45 -352.264 1474.64C-349.728 1476.46 -349.211 1478.87 -351.125 1479.99C-352.179 1480.63 -353.779 1480.73 -355.416 1480.38ZM739.336 1689.99C737.827 1689.67 736.275 1688.96 735.084 1687.96C732.772 1686.02 732.676 1683.7 734.855 1682.78C737.477 1681.67 740.088 1680.54 742.68 1679.4C744.828 1678.45 748.47 1679.25 750.802 1681.17C753.146 1683.1 753.292 1685.43 751.147 1686.38C748.523 1687.53 745.875 1688.68 743.208 1689.8C742.156 1690.25 740.756 1690.29 739.336 1689.99ZM791.956 1664.15C790.625 1663.86 789.27 1663.29 788.136 1662.46C785.622 1660.61 785.168 1658.23 787.115 1657.12C789.465 1655.79 791.781 1654.44 794.085 1653.08C795.999 1651.95 799.607 1652.52 802.131 1654.34C804.668 1656.16 805.184 1658.56 803.27 1659.68C800.929 1661.07 798.578 1662.44 796.194 1663.79C795.136 1664.4 793.566 1664.49 791.956 1664.15ZM-474.893 1381.96C-476.58 1381.61 -478.277 1380.78 -479.483 1379.64C-482.064 1377.18 -484.64 1374.72 -487.186 1372.25C-489.275 1370.23 -489.021 1367.99 -486.619 1367.28C-484.215 1366.55 -480.586 1367.6 -478.512 1369.62C-475.993 1372.06 -473.472 1374.49 -470.919 1376.9C-468.8 1378.92 -469.002 1381.16 -471.376 1381.91C-472.378 1382.23 -473.627 1382.24 -474.893 1381.96ZM838.33 1633.72C837.189 1633.48 836.011 1633.01 834.978 1632.35C832.294 1630.63 831.476 1628.19 833.175 1626.91C835.21 1625.36 837.235 1623.8 839.224 1622.23C840.878 1620.92 844.414 1621.25 847.131 1622.95C849.848 1624.66 850.706 1627.1 849.052 1628.41C847.026 1630.01 844.981 1631.58 842.912 1633.15C841.867 1633.94 840.144 1634.1 838.33 1633.72ZM-525.825 1329.87C-527.689 1329.48 -529.576 1328.5 -530.769 1327.18C-533.059 1324.65 -535.332 1322.11 -537.576 1319.57C-539.422 1317.48 -538.816 1315.37 -536.226 1314.84C-533.64 1314.32 -530.05 1315.58 -528.204 1317.66C-525.988 1320.17 -523.743 1322.67 -521.481 1325.17C-519.603 1327.24 -520.162 1329.37 -522.72 1329.93C-523.678 1330.14 -524.749 1330.11 -525.825 1329.87ZM878.022 1598.99C877.059 1598.79 876.074 1598.42 875.159 1597.91C872.316 1596.32 871.162 1593.87 872.581 1592.42C874.293 1590.68 875.981 1588.93 877.648 1587.16C879.034 1585.69 882.469 1585.78 885.323 1587.35C888.187 1588.92 889.381 1591.38 887.998 1592.84C886.309 1594.63 884.596 1596.41 882.864 1598.17C881.907 1599.16 880.023 1599.42 878.022 1598.99ZM-570.359 1276.41C-572.425 1275.97 -574.48 1274.82 -575.613 1273.34C-577.594 1270.76 -579.531 1268.17 -581.466 1265.57C-583.037 1263.45 -582.085 1261.47 -579.328 1261.14C-576.574 1260.83 -573.063 1262.29 -571.481 1264.41C-569.583 1266.97 -567.658 1269.52 -565.708 1272.08C-564.093 1274.2 -565.001 1276.2 -567.727 1276.55C-568.574 1276.65 -569.47 1276.59 -570.359 1276.41ZM910.601 1560.29C909.828 1560.13 909.026 1559.86 908.252 1559.48C905.282 1558.04 903.8 1555.59 904.934 1553.99C906.303 1552.07 907.637 1550.13 908.958 1548.2C910.044 1546.58 913.354 1546.43 916.332 1547.85C919.309 1549.27 920.847 1551.72 919.749 1553.33C918.415 1555.3 917.058 1557.26 915.667 1559.21C914.832 1560.38 912.807 1560.76 910.601 1560.29ZM-608.042 1222.06C-610.312 1221.58 -612.54 1220.24 -613.561 1218.62C-615.2 1216 -616.801 1213.39 -618.399 1210.77C-619.7 1208.62 -618.394 1206.8 -615.499 1206.68C-612.593 1206.58 -609.197 1208.23 -607.896 1210.37C-606.326 1212.96 -604.741 1215.54 -603.127 1218.12C-601.784 1220.26 -603.043 1222.11 -605.921 1222.25C-606.617 1222.28 -607.33 1222.21 -608.042 1222.06ZM935.72 1517.96C935.124 1517.83 934.511 1517.65 933.91 1517.39C930.85 1516.11 929.042 1513.68 929.871 1511.95C930.878 1509.87 931.858 1507.78 932.82 1505.67C933.601 1503.93 936.745 1503.53 939.827 1504.78C942.897 1506.03 944.76 1508.46 943.967 1510.2C942.995 1512.34 942.001 1514.46 940.984 1516.57C940.299 1517.96 938.13 1518.47 935.72 1517.96ZM-638.477 1167.37C-640.961 1166.84 -643.347 1165.31 -644.204 1163.54C-645.475 1160.93 -646.73 1158.31 -647.958 1155.69C-648.957 1153.54 -647.335 1151.89 -644.328 1151.99C-641.31 1152.09 -638.063 1153.92 -637.049 1156.06C-635.835 1158.64 -634.606 1161.22 -633.35 1163.81C-632.298 1165.96 -633.886 1167.63 -636.877 1167.56C-637.409 1167.55 -637.946 1167.49 -638.477 1167.37ZM953.122 1472.41C952.704 1472.32 952.282 1472.2 951.859 1472.06C948.73 1470.96 946.619 1468.57 947.149 1466.73C947.785 1464.5 948.396 1462.27 948.985 1460.02C949.466 1458.16 952.4 1457.52 955.537 1458.6C958.676 1459.68 960.833 1462.05 960.339 1463.91C959.752 1466.19 959.126 1468.46 958.479 1470.71C958.032 1472.3 955.748 1472.96 953.122 1472.41ZM-661.351 1112.88C-664.063 1112.3 -666.573 1110.56 -667.235 1108.68C-668.145 1106.09 -669.039 1103.49 -669.893 1100.9C-670.597 1098.77 -668.65 1097.31 -665.561 1097.62C-662.451 1097.95 -659.383 1099.91 -658.675 1102.03C-657.823 1104.6 -656.954 1107.15 -656.06 1109.71C-655.314 1111.84 -657.207 1113.34 -660.292 1113.05C-660.646 1113.01 -660.998 1112.96 -661.351 1112.88ZM962.639 1424.08C962.41 1424.03 962.173 1423.97 961.938 1423.9C958.765 1422.99 956.378 1420.68 956.592 1418.73C956.85 1416.38 957.094 1414.04 957.304 1411.67C957.48 1409.71 960.187 1408.84 963.356 1409.73C966.525 1410.62 968.958 1412.92 968.783 1414.87C968.574 1417.27 968.329 1419.66 968.06 1422.03C967.86 1423.84 965.491 1424.69 962.639 1424.08ZM-676.502 1059.1C-679.442 1058.47 -682.068 1056.49 -682.49 1054.52C-683.03 1051.97 -683.544 1049.42 -684.031 1046.87C-684.437 1044.78 -682.197 1043.52 -679.049 1044.04C-675.884 1044.54 -673.015 1046.67 -672.621 1048.75C-672.135 1051.27 -671.634 1053.78 -671.107 1056.3C-670.662 1058.39 -672.86 1059.68 -676.004 1059.19C-676.17 1059.16 -676.336 1059.13 -676.502 1059.1ZM964.218 1373.46C964.179 1373.46 964.129 1373.45 964.079 1373.43C960.902 1372.71 958.257 1370.49 958.159 1368.47C958.043 1366.02 957.913 1363.58 957.749 1361.11C957.62 1359.1 960.041 1358.01 963.186 1358.67C963.21 1358.68 963.224 1358.68 963.248 1358.69C966.424 1359.38 969.1 1361.59 969.236 1363.62C969.401 1366.12 969.545 1368.59 969.648 1371.07C969.759 1373.07 967.325 1374.12 964.218 1373.46ZM-683.855 1006.5L-683.906 1006.49C-687.081 1005.8 -689.757 1003.59 -689.894 1001.56C-690.059 999.06 -690.2 996.574 -690.305 994.101C-690.39 992.111 -687.97 991.059 -684.863 991.716C-684.813 991.728 -684.763 991.739 -684.724 991.746C-681.547 992.47 -678.905 994.694 -678.817 996.71C-678.71 999.144 -678.57 1001.6 -678.407 1004.06C-678.277 1006.08 -680.698 1007.17 -683.855 1006.5ZM957.969 1321.06C954.989 1320.43 952.348 1318.42 951.975 1316.43C951.489 1313.91 950.989 1311.4 950.449 1308.88C950.005 1306.79 952.203 1305.49 955.347 1305.98C958.493 1306.47 961.4 1308.57 961.844 1310.66C962.385 1313.21 962.899 1315.76 963.386 1318.31C963.792 1320.4 961.551 1321.66 958.404 1321.14C958.25 1321.12 958.111 1321.09 957.969 1321.06ZM-683.348 955.605C-683.55 955.559 -683.764 955.509 -683.975 955.451C-687.144 954.564 -689.577 952.263 -689.399 950.302C-689.19 947.903 -688.945 945.518 -688.676 943.142C-688.462 941.195 -685.725 940.352 -682.543 941.275C-679.372 942.194 -676.983 944.503 -677.208 946.445C-677.467 948.794 -677.713 951.147 -677.921 953.507C-678.078 955.342 -680.446 956.223 -683.348 955.605ZM943.881 1267.4C941.142 1266.82 938.604 1265.04 937.977 1263.14C937.125 1260.58 936.255 1258.03 935.347 1255.47C934.601 1253.34 936.491 1251.85 939.579 1252.13C942.676 1252.42 945.779 1254.37 946.524 1256.49C947.434 1259.09 948.317 1261.68 949.182 1264.27C949.887 1266.4 947.952 1267.87 944.851 1267.55C944.535 1267.52 944.21 1267.47 943.881 1267.4ZM-674.945 906.926C-675.339 906.846 -675.735 906.733 -676.134 906.595C-679.273 905.523 -681.416 903.143 -680.934 901.283C-680.332 899.004 -679.721 896.736 -679.074 894.482C-678.544 892.64 -675.582 892.034 -672.442 893.138C-669.313 894.239 -667.202 896.629 -667.732 898.471C-668.369 900.697 -668.979 902.927 -669.57 905.179C-669.989 906.802 -672.283 907.491 -674.945 906.926ZM922.076 1212.98C919.553 1212.45 917.163 1210.89 916.326 1209.11C915.112 1206.52 913.874 1203.93 912.615 1201.35C911.563 1199.21 913.14 1197.53 916.142 1197.6C919.142 1197.68 922.417 1199.47 923.469 1201.62C924.75 1204.24 926.007 1206.86 927.232 1209.49C928.243 1211.63 926.61 1213.28 923.603 1213.18C923.094 1213.15 922.583 1213.09 922.076 1212.98ZM-658.645 860.959C-659.214 860.835 -659.803 860.656 -660.386 860.424C-663.468 859.168 -665.307 856.748 -664.524 854.996C-663.551 852.859 -662.558 850.738 -661.538 848.619C-660.697 846.897 -657.552 846.526 -654.469 847.815C-651.409 849.094 -649.602 851.526 -650.445 853.255C-651.452 855.339 -652.432 857.426 -653.394 859.535C-654.018 860.945 -656.196 861.474 -658.645 860.959ZM892.681 1158.3C890.374 1157.81 888.125 1156.45 887.129 1154.8C885.569 1152.23 883.981 1149.65 882.377 1147.08C881.034 1144.94 882.292 1143.09 885.171 1142.95C888.05 1142.81 891.468 1144.44 892.811 1146.58C894.44 1149.19 896.044 1151.8 897.63 1154.41C898.931 1156.56 897.637 1158.39 894.743 1158.5C894.065 1158.52 893.377 1158.45 892.681 1158.3ZM-634.589 818.148C-635.339 817.994 -636.114 817.727 -636.87 817.374C-639.85 815.959 -641.385 813.498 -640.288 811.89C-638.953 809.916 -637.585 807.963 -636.205 806.014C-635.071 804.42 -631.736 804.305 -628.778 805.742C-625.809 807.184 -624.326 809.641 -625.46 811.234C-626.829 813.156 -628.175 815.086 -629.484 817.031C-630.315 818.227 -632.36 818.626 -634.589 818.148ZM856.015 1103.91C853.911 1103.46 851.837 1102.3 850.715 1100.79C848.818 1098.24 846.891 1095.69 844.949 1093.14C843.337 1091.02 844.242 1089.02 846.968 1088.67C849.706 1088.33 853.228 1089.76 854.842 1091.88C856.812 1094.46 858.754 1097.04 860.677 1099.63C862.26 1101.75 861.308 1103.73 858.539 1104.05C857.759 1104.15 856.89 1104.1 856.015 1103.91ZM-603.038 778.912C-603.975 778.71 -604.927 778.368 -605.832 777.87C-608.696 776.295 -609.89 773.838 -608.507 772.38C-606.818 770.59 -605.104 768.808 -603.37 767.043C-601.951 765.599 -598.488 765.722 -595.659 767.315C-592.815 768.906 -591.674 771.358 -593.093 772.803C-594.805 774.545 -596.493 776.296 -598.16 778.064C-599.107 779.066 -601.01 779.345 -603.038 778.912ZM812.437 1050.31C810.534 1049.91 808.628 1048.91 807.443 1047.57C805.225 1045.07 802.992 1042.57 800.729 1040.07C798.852 1038 799.41 1035.87 801.969 1035.31C804.527 1034.76 808.126 1035.99 810.003 1038.06C812.293 1040.59 814.555 1043.13 816.801 1045.67C818.647 1047.75 818.04 1049.86 815.451 1050.39C814.531 1050.57 813.489 1050.54 812.437 1050.31ZM-564.333 743.612C-565.448 743.373 -566.595 742.932 -567.621 742.285C-570.338 740.577 -571.197 738.139 -569.545 736.839L-568.835 736.275C-567.047 734.87 -565.235 733.474 -563.405 732.101C-561.708 730.827 -558.159 731.188 -555.474 732.908C-552.792 734.634 -551.986 737.067 -553.671 738.346C-555.469 739.708 -557.256 741.074 -559.021 742.456L-559.727 743.006C-560.738 743.818 -562.495 744.003 -564.333 743.612ZM762.38 998.015C760.669 997.649 758.95 996.807 757.74 995.639C755.233 993.206 752.698 990.779 750.145 988.36C748.024 986.352 748.228 984.109 750.59 983.351C752.951 982.593 756.591 983.613 758.712 985.621C761.305 988.079 763.859 990.529 766.405 993.001C768.495 995.02 768.243 997.244 765.85 997.975C764.841 998.282 763.622 998.279 762.38 998.015ZM-518.847 712.569C-520.151 712.289 -521.485 711.728 -522.603 710.928C-525.137 709.101 -525.644 706.711 -523.739 705.572C-521.398 704.19 -519.05 702.826 -516.666 701.476C-514.721 700.376 -511.109 700.967 -508.596 702.81C-506.082 704.653 -505.628 707.039 -507.575 708.145C-509.925 709.477 -512.253 710.824 -514.559 712.188C-515.623 712.814 -517.213 712.921 -518.847 712.569ZM706.354 947.512C704.833 947.188 703.293 946.486 702.099 945.49C699.323 943.151 696.516 940.824 693.706 938.504C691.361 936.577 691.213 934.253 693.361 933.302C695.506 932.358 699.15 933.151 701.482 935.074C704.335 937.427 707.183 939.793 710.001 942.163C712.313 944.102 712.409 946.421 710.23 947.344C709.173 947.775 707.774 947.813 706.354 947.512ZM-467.05 686.084C-468.532 685.767 -470.053 685.087 -471.241 684.11C-473.573 682.187 -473.731 679.852 -471.585 678.908C-468.961 677.753 -466.313 676.608 -463.647 675.485C-461.468 674.562 -457.825 675.394 -455.513 677.333C-453.201 679.272 -453.105 681.591 -455.284 682.514C-457.916 683.618 -460.517 684.75 -463.107 685.886C-464.186 686.34 -465.603 686.388 -467.05 686.084ZM644.896 899.296C643.565 899.014 642.21 898.437 641.076 897.607C638.05 895.385 635.006 893.173 631.945 890.97C629.412 889.143 628.905 886.753 630.81 885.614C632.724 884.486 636.332 885.052 638.868 886.872C641.971 889.107 645.048 891.34 648.117 893.594C650.631 895.437 651.085 897.822 649.137 898.929C648.079 899.541 646.509 899.632 644.896 899.296ZM-409.45 664.372C-411.137 664.016 -412.835 663.19 -414.041 662.047C-416.16 660.032 -415.958 657.796 -413.585 657.043C-410.695 656.124 -407.781 655.215 -404.861 654.324C-402.468 653.594 -398.828 654.646 -396.75 656.66C-394.661 658.68 -394.913 660.904 -397.305 661.635C-400.194 662.514 -403.07 663.398 -405.919 664.317C-406.936 664.644 -408.184 664.646 -409.45 664.372ZM578.603 853.817C577.461 853.576 576.284 853.107 575.239 852.437C571.995 850.353 568.732 848.285 565.465 846.224C562.749 844.516 561.902 842.082 563.556 840.776C565.21 839.469 568.756 839.806 571.46 841.509C574.772 843.595 578.078 845.695 581.367 847.804C584.051 849.524 584.869 851.962 583.17 853.243C582.128 854.027 580.402 854.201 578.603 853.817ZM-346.582 647.679C-348.458 647.282 -350.333 646.308 -351.526 644.989C-353.403 642.917 -352.845 640.786 -350.286 640.23C-347.16 639.553 -344.013 638.891 -340.846 638.253C-338.26 637.731 -334.67 638.985 -332.824 641.069C-330.979 643.152 -331.585 645.264 -334.174 645.793C-337.297 646.424 -340.4 647.079 -343.483 647.749C-344.423 647.948 -345.503 647.904 -346.582 647.679ZM508.067 811.523C507.104 811.319 506.119 810.956 505.205 810.446C501.774 808.527 498.341 806.615 494.873 804.722C492.009 803.147 490.815 800.69 492.198 799.232C493.584 797.767 497.019 797.856 499.873 799.419C503.372 801.34 506.864 803.275 510.34 805.219C513.184 806.81 514.337 809.267 512.918 810.711C511.952 811.69 510.069 811.953 508.067 811.523ZM-279.027 636.167C-281.094 635.728 -283.161 634.578 -284.293 633.1C-285.905 630.98 -285 628.983 -282.262 628.638C-278.92 628.217 -275.567 627.808 -272.209 627.418C-269.455 627.103 -265.944 628.563 -264.361 630.687C-262.79 632.807 -263.743 634.786 -266.5 635.108C-269.815 635.492 -273.123 635.894 -276.424 636.315C-277.231 636.415 -278.126 636.355 -279.027 636.167ZM433.988 772.85C433.214 772.686 432.412 772.418 431.639 772.041C428.057 770.301 424.458 768.57 420.852 766.86C417.871 765.446 416.336 762.984 417.422 761.372C418.519 759.765 421.815 759.61 424.798 761.018C428.45 762.753 432.106 764.514 435.735 766.273C438.705 767.714 440.187 770.171 439.053 771.765C438.219 772.937 436.181 773.314 433.988 772.85ZM-207.428 629.968C-209.699 629.49 -211.927 628.152 -212.945 626.521C-214.288 624.378 -213.029 622.532 -210.151 622.391C-206.632 622.228 -203.105 622.076 -199.556 621.94C-196.65 621.833 -193.254 623.486 -191.952 625.629C-190.651 627.772 -191.957 629.599 -194.852 629.71C-198.345 629.844 -201.828 629.989 -205.305 630.153C-205.991 630.189 -206.705 630.12 -207.428 629.968ZM357.032 738.163C356.436 738.037 355.823 737.848 355.221 737.594C351.522 736.053 347.805 734.521 344.083 733.004C341.013 731.752 339.162 729.327 339.957 727.58C340.752 725.833 343.882 725.433 346.964 726.689C350.733 728.225 354.51 729.779 358.257 731.338C361.317 732.617 363.124 735.049 362.296 736.776C361.609 738.17 359.442 738.671 357.032 738.163ZM-132.463 629.138C-134.947 628.609 -137.321 627.081 -138.19 625.31C-139.242 623.16 -137.653 621.489 -134.663 621.557C-131.008 621.644 -127.334 621.753 -123.653 621.881C-120.637 621.99 -117.388 623.808 -116.374 625.951C-115.375 628.096 -116.997 629.746 -120.003 629.648C-123.631 629.525 -127.251 629.42 -130.863 629.327C-131.395 629.32 -131.932 629.255 -132.463 629.138ZM277.973 707.84C277.555 707.751 277.136 707.629 276.712 707.482C272.943 706.159 269.168 704.85 265.376 703.55C262.237 702.478 260.082 700.094 260.576 698.238C261.058 696.379 264.016 695.747 267.14 696.822C270.982 698.133 274.817 699.465 278.634 700.806C281.763 701.907 283.876 704.29 283.344 706.139C282.883 707.73 280.611 708.397 277.973 707.84ZM-54.873 633.715C-57.5855 633.138 -60.0951 631.392 -60.7568 629.511C-61.5025 627.384 -59.6099 625.885 -56.5249 626.171C-52.7527 626.524 -48.9832 626.883 -45.1976 627.273C-42.0874 627.6 -39.0188 629.569 -38.3144 631.695C-37.6099 633.822 -39.557 635.284 -42.6579 634.969C-46.3904 634.584 -50.1189 634.224 -53.8261 633.881C-54.1685 633.844 -54.5174 633.789 -54.873 633.715ZM197.637 682.159C197.409 682.111 197.171 682.051 196.936 681.984C193.121 680.889 189.302 679.8 185.476 678.732C182.307 677.845 179.874 675.543 180.049 673.589C180.224 671.635 182.955 670.774 186.1 671.652C189.977 672.731 193.858 673.836 197.721 674.951C200.894 675.863 203.281 678.178 203.067 680.125C202.871 681.921 200.501 682.771 197.637 682.159ZM24.6098 643.639C21.669 643.014 19.0294 641.036 18.6249 639.056C18.1805 636.967 20.3786 635.672 23.5195 636.169C27.3464 636.772 31.1943 637.39 35.0492 638.027C38.1968 638.542 41.0719 640.659 41.4778 642.741C41.8718 644.819 39.6432 646.087 36.4957 645.572C32.6939 644.939 28.9079 644.336 25.1194 643.741C24.9416 643.704 24.7756 643.672 24.6098 643.639ZM116.75 661.335C116.7 661.324 116.661 661.317 116.611 661.306C112.79 660.437 108.962 659.589 105.13 658.748C101.955 658.056 99.2785 655.85 99.1419 653.816C99.012 651.8 101.433 650.709 104.578 651.373C104.602 651.383 104.617 651.38 104.641 651.39C108.525 652.235 112.401 653.102 116.275 653.975C119.452 654.699 122.096 656.916 122.183 658.939C122.291 660.939 119.869 661.997 116.75 661.335Z" fill="#7F90C3" fill-opacity="0.37"/>
<path d="M-256.12 651.514L-257.538 646.399C-257.433 646.037 -247.434 611.091 -222.627 556.993C-199.739 507.08 -159.9 431.716 -100.094 356.125C-32.8593 271.144 45.3941 203.193 132.484 154.181C184.201 125.073 239.667 102.423 297.291 86.8031C360.684 69.6461 428.298 60.619 498.246 59.9782C649.918 58.5841 787.145 70.2175 908.219 80.4767C1085.34 95.4896 1238.32 108.456 1384.78 79.1606C1462.2 63.6751 1532.99 37.2903 1601.19 -1.49753C1675.78 -43.9119 1747.71 -101.921 1820.05 -176.856L1821.06 -173.206C1748.52 -98.0676 1677.49 -41.4804 1602.66 1.07447C1534.17 40.0215 1463.09 66.512 1385.36 82.0595C1238.48 111.438 1085.32 98.454 907.964 83.4217C786.957 73.1644 649.799 61.5377 498.271 62.933C428.588 63.5718 361.24 72.561 298.1 89.6481C240.709 105.167 185.49 127.744 133.993 156.724C47.2401 205.546 -30.7147 273.224 -97.7112 357.883C-130.623 399.472 -178.537 467.979 -219.896 558.137C-244.631 612.072 -256.015 651.152 -256.12 651.514Z" fill="#7F90C3" fill-opacity="0.37"/>
<path opacity="0.03" d="M812.365 1144.1L653.847 1433.57C652.629 1435.8 649.84 1436.61 647.617 1435.39L-188.973 977.265C-191.196 976.048 -192.011 973.258 -190.794 971.035L-37.4133 690.947C-36.466 689.217 -34.5277 688.276 -32.5866 688.621C110.868 714.022 274.457 772.11 437.309 861.29C587.216 943.382 715.264 1040.18 811.63 1138.68C813.045 1140.13 813.337 1142.33 812.365 1144.1Z" fill="white"/>
<path opacity="0.16" d="M745.795 1265.66L651.641 1437.6L-193 975.061L-108.882 821.455C19.3215 807.845 203.667 853.393 386.734 953.644C551.827 1044.05 679.998 1159.3 745.795 1265.66Z" fill="white"/>
<path d="M734.811 1285.73L651.647 1437.6L-192.994 975.061L-116.989 836.269C-1.28129 842.431 169.514 898.367 345.267 994.612C443.144 1048.21 529.638 1107.24 598.741 1165.3C608.147 1160.64 648.323 1190.81 690.51 1234.51C708.11 1252.73 723.365 1270.51 734.811 1285.73Z" fill="#DFDFDF"/>
<path d="M152.693 1096.29C152.545 1096.21 152.396 1096.13 152.247 1096.05C133.094 1085.48 120.373 1066.2 117.49 1044.52C116.135 1034.34 112.53 1021.64 106.881 1008.45C95.4402 981.72 79.7097 962.495 70.5693 963.524C69.49 935.858 75.6403 907.553 89.9078 881.499C90.3981 881.526 90.9053 881.562 91.3955 881.589C12.3464 854.835 -59.1926 839.353 -116.99 836.27L-192.995 975.062L651.646 1437.6L680.323 1385.23L152.693 1096.29Z" fill="#B6B6B6"/>
<path d="M697.72 1326.42C716.233 1301.55 648.198 1219.57 545.761 1143.31C443.324 1067.05 345.274 1025.39 326.761 1050.25C308.249 1075.12 376.283 1157.1 478.72 1233.36C581.158 1309.62 679.207 1351.29 697.72 1326.42Z" fill="#222837"/>
<path d="M110.332 980.748C107.433 983.619 97.5827 978.378 88.3307 969.04C79.077 959.702 73.9264 949.804 76.8229 946.933C79.7211 944.062 89.5719 949.303 98.8238 958.641C108.078 967.977 113.231 977.876 110.332 980.748Z" fill="#B6B6B6"/>
<path d="M126.491 982.991C124.805 984.425 119.693 981.186 115.071 975.756C110.449 970.327 108.068 964.761 109.754 963.328C111.44 961.893 116.551 965.133 121.173 970.563C125.796 975.992 128.176 981.558 126.491 982.991Z" fill="#B6B6B6"/>
<path d="M101.576 1084.57C95.6659 1089.3 78.5197 1077.7 63.2781 1058.66C48.0364 1039.61 40.4703 1020.34 46.3806 1015.61C52.291 1010.88 69.4372 1022.48 84.6788 1041.53C99.9205 1060.57 107.488 1079.84 101.576 1084.57Z" fill="#222837"/>
<path d="M44.2006 1054.81C40.9191 1057.25 31.866 1050.66 23.9781 1040.09C16.0912 1029.52 12.3588 1018.96 15.6403 1016.51C18.9218 1014.07 27.9758 1020.65 35.8627 1031.23C43.7506 1041.8 47.4821 1052.36 44.2006 1054.81Z" fill="#222837"/>
<path opacity="0.17" d="M1260.76 39.2238C1279.42 65.7902 1307.14 104.811 1340.06 149.841C1401.61 234.007 1520.31 303.136 1589.15 334.641C1657.99 366.147 1770.14 483.212 1800.77 580.071C1831.39 676.932 1777.98 784.663 1789.2 889.337C1796.54 957.756 1850.03 1077.44 1886.21 1152.16L2028.42 1048.92C1992.4 994.051 1948.63 903.282 1948.64 792.386C1948.65 746.719 1944.37 702.036 1936.74 659.438C1876.88 458.652 1811.92 370.789 1643.71 255.827C1578.55 219.978 1511.83 189.587 1467.59 170.083C1406.5 143.153 1334.82 61.0244 1296.6 13.201C1239.42 -40.877 1211.68 -26.9987 1260.76 39.2238Z" fill="#CCDAFF"/>
</g>
</svg>
