<?xml version="1.0" standalone="no"?>
<!DOCTYPE svg PUBLIC "-//W3C//DTD SVG 20010904//EN"
 "http://www.w3.org/TR/2001/REC-SVG-20010904/DTD/svg10.dtd">
<svg version="1.0" xmlns="http://www.w3.org/2000/svg"
 width="1024.000000pt" height="404.000000pt" viewBox="0 0 1024.000000 404.000000"
 preserveAspectRatio="xMidYMid meet">

<g transform="translate(0.000000,404.000000) scale(0.100000,-0.100000)"
fill="#034078" stroke="none">
<path d="M606 4012 c4 -15 36 -119 72 -232 58 -186 65 -216 72 -325 7 -119 7
-120 -17 -142 -13 -13 -36 -25 -51 -29 -34 -7 -112 -35 -179 -65 -51 -22 -52
-22 -126 -5 -47 11 -90 15 -118 11 -25 -3 -80 1 -129 9 -98 18 -134 20 -125 7
3 -5 19 -12 35 -16 36 -8 39 -26 8 -40 -20 -9 -23 -18 -26 -82 -4 -91 6 -93
71 -12 27 33 61 65 75 71 15 6 92 13 172 14 178 3 391 46 440 90 28 24 83 42
184 59 115 19 157 14 238 -26 32 -16 67 -29 79 -29 37 0 87 -39 109 -86 24
-49 53 -74 175 -156 69 -46 84 -61 110 -113 22 -44 45 -71 89 -104 32 -25 73
-65 90 -90 74 -109 136 -145 256 -148 47 -1 105 -5 130 -8 31 -5 71 0 127 14
120 31 135 29 167 -20 19 -29 43 -48 80 -64 56 -25 69 -43 95 -142 21 -79 28
-82 186 -87 198 -6 315 -43 315 -98 0 -10 -9 -37 -20 -58 -30 -58 -34 -113
-16 -222 24 -145 23 -155 -23 -194 -47 -41 -74 -96 -73 -150 0 -22 10 -90 22
-149 31 -151 26 -217 -24 -320 -27 -58 -38 -93 -38 -128 0 -43 -3 -48 -27 -53
-57 -13 -63 -17 -82 -57 -25 -57 -24 -92 6 -131 14 -18 25 -40 25 -49 0 -9
-40 -61 -90 -114 -49 -54 -90 -102 -90 -107 0 -15 59 -198 77 -240 15 -33 28
-43 88 -71 40 -18 82 -46 98 -64 29 -35 33 -31 16 17 -8 24 -21 35 -57 47
-103 36 -112 43 -137 98 -28 60 -51 181 -42 217 4 14 33 54 65 90 55 61 92
116 92 139 0 5 -12 24 -26 41 -23 27 -26 37 -20 77 9 67 24 79 108 85 58 5 75
10 90 28 30 37 33 84 8 150 l-22 59 26 91 c29 103 32 151 12 265 -25 142 3
210 114 276 38 22 74 47 81 55 15 18 6 52 -42 150 -21 45 -39 86 -39 91 0 5
12 15 26 22 26 12 27 13 20 81 -3 37 -3 76 0 85 4 9 26 25 49 35 36 15 44 24
49 54 4 19 11 38 16 41 5 3 60 -7 122 -23 135 -35 188 -44 188 -32 0 10 -63
30 -92 30 -30 0 -20 14 40 52 31 20 103 73 159 116 142 111 160 117 428 130
231 11 339 5 425 -23 52 -17 74 -37 115 -105 53 -88 168 -189 200 -176 8 3 23
23 34 44 22 44 36 52 88 52 47 0 300 -112 367 -162 83 -63 112 -63 216 -1 75
45 202 103 278 128 47 16 60 16 107 5 61 -15 87 -12 307 32 l157 32 49 95 c27
53 57 120 67 149 9 29 34 73 55 97 23 27 45 66 54 99 19 65 57 113 105 133 24
10 99 18 231 24 245 11 307 21 497 75 137 39 164 44 246 43 95 -2 152 10 318
66 94 32 127 31 197 -4 32 -16 76 -32 98 -36 21 -4 55 -18 76 -31 26 -17 45
-22 70 -18 26 4 53 -5 131 -45 55 -28 106 -51 114 -51 9 0 30 -9 48 -20 32
-20 115 -43 191 -54 l42 -6 84 128 c47 70 104 162 129 206 58 104 98 136 214
175 123 41 193 48 271 27 34 -9 79 -16 100 -16 78 0 284 59 284 82 0 13 -13
10 -81 -21 -89 -39 -131 -44 -256 -25 -67 10 -135 14 -179 10 -45 -3 -74 -2
-81 5 -8 8 -49 -8 -145 -57 l-133 -67 -57 -116 c-71 -143 -148 -241 -203 -259
-72 -25 -241 14 -266 60 -9 16 -13 18 -20 7 -6 -11 -24 -5 -86 28 -43 23 -97
46 -121 53 -25 6 -48 21 -58 35 -9 13 -35 31 -59 41 -40 15 -46 15 -66 1 -20
-14 -26 -14 -57 -1 -58 24 -65 34 -45 57 17 20 17 20 -2 13 -11 -4 -62 -12
-113 -17 -51 -5 -97 -11 -102 -14 -6 -3 -67 -10 -137 -15 -101 -7 -154 -16
-253 -46 -317 -94 -259 -87 -663 -73 -26 1 -65 -12 -123 -40 -87 -41 -234
-137 -234 -151 0 -5 13 -11 29 -15 l28 -6 -29 -31 c-16 -17 -46 -61 -67 -97
-94 -164 -141 -249 -156 -287 l-16 -42 -97 -13 c-53 -7 -180 -14 -282 -14
-173 -1 -190 -3 -258 -28 -41 -15 -102 -47 -135 -73 -57 -42 -66 -45 -109 -41
-54 5 -167 57 -385 177 -80 45 -146 80 -148 78 -1 -2 -16 -23 -32 -48 -95
-140 -136 -120 -219 110 -21 58 -42 111 -47 118 -7 9 -51 12 -159 12 -157 0
-278 14 -313 35 -11 7 -46 20 -78 29 -32 9 -64 25 -72 34 -53 65 -66 79 -94
95 -28 16 -32 17 -37 2 -8 -19 13 -45 36 -45 24 0 44 -55 29 -81 -5 -10 -13
-19 -17 -19 -4 0 -57 -48 -118 -107 -60 -60 -133 -124 -162 -143 -28 -19 -52
-40 -52 -46 0 -21 -29 -36 -56 -30 -14 4 -56 35 -93 70 -37 35 -77 69 -90 75
-35 19 -74 4 -132 -50 -50 -46 -52 -50 -25 -44 19 4 34 1 47 -11 26 -24 24
-50 -7 -70 -21 -14 -33 -15 -67 -7 -23 6 -50 14 -59 18 -13 5 -18 3 -18 -9 0
-9 6 -16 14 -16 19 0 28 -43 16 -74 l-10 -26 -162 0 c-197 0 -206 4 -269 112
-41 70 -134 174 -188 210 -34 23 -91 23 -204 -3 -63 -14 -112 -19 -156 -16
-38 3 -83 0 -110 -8 -92 -26 -119 -27 -164 -6 -23 11 -55 24 -72 28 -19 6 -40
25 -60 55 -18 27 -56 63 -95 89 -62 42 -66 47 -80 104 -13 51 -21 63 -60 92
-90 64 -112 87 -140 143 -53 106 -99 144 -205 169 -27 7 -67 26 -88 43 -38 30
-41 30 -110 23 -40 -4 -101 -7 -137 -6 -36 1 -78 -4 -93 -10 -15 -7 -30 -10
-32 -7 -3 2 -27 82 -55 176 -28 95 -61 196 -74 225 -12 29 -26 84 -30 122 -5
47 -14 81 -29 102 -30 44 -49 51 -41 15z"/>
</g>
</svg>
