<svg width="900" height="109" viewBox="0 0 900 109" fill="none" xmlns="http://www.w3.org/2000/svg">
<path fill-rule="evenodd" clip-rule="evenodd" d="M8.8 73.1979L0 72.9979V58.9983L8.8 58.4983L8.91033 58.4921C17.8449 57.9902 35.3728 57.0054 53 58.6983C57.6859 59.1219 62.3647 59.7417 67.0403 60.3611C71.1064 60.8997 75.1701 61.438 79.2337 61.8466C75.6898 62.8266 72.146 63.9285 68.6004 65.0309C63.4055 66.6461 58.2071 68.2625 53 69.498C36.0179 73.5275 19.1279 73.3228 9.92537 73.2112C9.53632 73.2065 9.161 73.202 8.8 73.1979ZM112.31 59.8235C118.126 58.2154 123.935 55.9952 129.742 53.7755C139.486 50.0505 149.228 46.3268 159 45.4987C168.499 44.6938 177.968 46.6246 187.44 48.5558C195.618 50.2233 203.799 51.8912 212 51.7985C220.118 51.7527 228.216 49.9607 236.311 48.1692C245.866 46.0548 255.418 43.9409 265 44.6987C276.904 45.573 288.763 50.8347 300.637 56.1033C306.419 58.6685 312.204 61.2353 318 63.2982C335.7 69.698 353.3 71.298 371 68.298C378.122 67.0909 385.228 65.139 392.318 63.1915C402.848 60.2992 413.342 57.4167 423.8 56.9984C432.253 56.6603 440.683 57.9787 449.112 59.2969C458.133 60.7078 467.153 62.1186 476.2 61.4983C488.473 60.6567 500.795 56.1758 513.166 51.6771C518.435 49.7609 523.713 47.8415 529 46.1987C546.7 40.6989 564.3 38.2989 582 37.6989C599.7 36.999 617.3 37.9989 635 39.2989C652.7 40.6988 670.3 42.2988 688 46.7987C697.327 49.1698 706.626 52.3462 715.926 55.523C718.343 56.3486 720.76 57.1742 723.178 57.9857C719.525 58.4045 715.875 58.926 712.223 59.4476C704.157 60.5999 696.089 61.7525 688 61.7982C680.328 61.8849 672.674 60.9946 665.023 60.1046C655.023 58.9413 645.028 57.7786 635 58.7983C626.705 59.6887 618.432 62.0507 610.16 64.4123C600.781 67.0897 591.405 69.7666 582 70.298C570.108 70.9698 558.261 68.2112 546.399 65.4489C540.605 64.0998 534.808 62.7498 529 61.7982C511.3 58.9983 493.7 59.9983 476.2 63.4982C467.09 65.3202 458.006 67.8198 448.922 70.3197C440.556 72.6217 432.19 74.9241 423.8 76.6978C406.3 80.2977 388.7 81.6976 371 79.7977C359.465 78.6247 347.972 76.0926 336.467 73.5577C330.318 72.203 324.165 70.8474 318 69.698C306.995 67.584 296.028 66.1659 285.052 64.7466C278.375 63.8832 271.695 63.0194 265 61.9982C263.054 61.7014 261.11 61.3938 259.167 61.0863C243.43 58.5963 227.754 56.1161 212 59.4983C205.164 60.9659 198.342 63.5672 191.525 66.1672C180.69 70.299 169.864 74.4275 159 73.9979C149.64 73.6277 140.309 69.9303 130.976 66.2321C124.757 63.7682 118.538 61.3041 112.31 59.8235ZM790.211 70.341C791.474 70.3408 792.737 70.3265 794 70.298C804.612 70.1181 815.187 68.9679 825.77 67.8168C832.839 67.0479 839.911 66.2787 847 65.7981C864.7 64.6982 882.3 65.2982 891.2 65.6981L900 65.9981V85.9975L891.2 86.9975L891.061 87.0131C882.118 88.018 864.609 89.9856 847 87.6975C829.3 85.2976 811.7 78.6977 794 71.7979C793.348 71.5476 792.697 71.297 792.045 71.0464C791.434 70.8111 790.822 70.5759 790.211 70.341ZM900 -1.8691e-06L891.2 1.33897e-05H847H794H741H688H635H582H529H476.2H423.8H371H318H265H212H159H106H53H8.8L0 -1.8691e-06H8.8H53H106H159H212H265H318H371H423.8H476.2H529H582H635H688H741H794H847H891.2H900Z" fill="#3F6091"/>
<path fill-rule="evenodd" clip-rule="evenodd" d="M8.8 99.7603L0 98.7603V72.761L8.8 72.961C9.16101 72.9651 9.53633 72.9697 9.9254 72.9744C19.128 73.0859 36.018 73.2907 53 69.2611C58.2071 68.0256 63.4055 66.4093 68.6004 64.794C81.064 60.9188 93.5071 57.0499 106 58.4615C114.34 59.4039 122.659 62.6998 130.976 65.9953C140.309 69.6934 149.64 73.3909 159 73.761C159.49 73.7804 159.98 73.7905 160.469 73.7917C159.98 73.9441 159.49 74.1005 159 74.261C149.991 77.2132 141.007 81.6162 132.023 86.0195C123.357 90.2669 114.691 94.5145 106 97.4603C88.3 103.46 70.7 104.06 53 103.46C35.5937 102.772 18.2841 100.826 9.2502 99.8109C9.09776 99.7937 8.94768 99.7769 8.8 99.7603ZM182.52 69.2669C185.522 68.2196 188.523 67.0751 191.525 65.9303C198.342 63.3303 205.164 60.729 212 59.2614C227.754 55.8792 243.43 58.3594 259.167 60.8494C261.11 61.1569 263.054 61.4646 265 61.7614C271.695 62.7825 278.375 63.6463 285.052 64.5097C296.028 65.929 306.995 67.3472 318 69.4611C324.165 70.6105 330.318 71.9661 336.467 73.3209C345.509 75.3131 354.544 77.3036 363.597 78.634C348.387 81.6448 333.231 83.1817 318 81.4608C308.023 80.3335 298.077 77.8081 288.128 75.2817C280.426 73.3261 272.723 71.37 265 70.0611C247.814 67.1483 230.722 67.4408 213.542 67.7349C213.028 67.7437 212.514 67.7525 212 67.7612C202.154 67.9281 192.339 68.1259 182.52 69.2669ZM430.355 74.9758C436.55 73.4872 442.736 71.7849 448.922 70.0828C458.006 67.5829 467.09 65.0833 476.2 63.2613C493.7 59.7614 511.3 58.7614 529 61.5613C534.808 62.5129 540.605 63.8629 546.399 65.212C558.261 67.9743 570.108 70.7329 582 70.0611C591.405 69.5298 600.781 66.8528 610.16 64.1754C618.432 61.8138 626.705 59.4519 635 58.5614C645.028 57.5417 655.023 58.7045 665.023 59.8677C672.674 60.7577 680.328 61.648 688 61.5613C696.089 61.5156 704.157 60.3631 712.223 59.2108C721.807 57.8416 731.389 56.4728 741 56.9615C758.048 57.732 775.004 64.2542 792.045 70.8095C792.697 71.0601 793.348 71.3107 794 71.5611C811.7 78.4609 829.3 85.0607 847 87.4606C864.609 89.7487 882.118 87.7812 891.061 86.7762L891.2 86.7606L900 85.7607V108.76L891.2 107.06C882.3 105.46 864.7 102.06 847 98.5603L845.299 98.2238C828.172 94.8335 811.133 91.4605 794 91.4605C786.501 91.4605 779.02 92.1067 771.541 92.7527C761.368 93.6314 751.201 94.5096 741 93.7604C729.59 92.9225 718.222 89.9653 706.842 87.0051C700.568 85.3731 694.29 83.7401 688 82.4608C670.3 78.7609 652.7 77.7609 635 79.2608C618.73 80.6396 602.544 84.1308 586.287 87.6373C584.859 87.9454 583.43 88.2536 582 88.5606C564.3 92.4605 546.7 96.0604 529 99.5603C511.3 103.06 493.7 106.46 476.2 100.06C467.917 97.0783 459.656 91.9232 451.396 86.7689C444.386 82.3943 437.376 78.0203 430.355 74.9758Z" fill="#507DBC"/>
<path fill-rule="evenodd" clip-rule="evenodd" d="M8.8 59.9184L0 60.4184V39.419L8.8 37.719C9.26027 37.6363 9.74381 37.5487 10.2494 37.4572C19.5207 35.7784 36.2154 32.7554 53 33.4191C62.8568 33.8089 72.6825 35.4082 82.5118 37.0079C90.3331 38.2809 98.1568 39.5543 106 40.2189C123.103 41.6683 140.113 40.2233 157.21 38.771C157.806 38.7203 158.403 38.6696 159 38.619C161.373 38.4179 163.743 38.2187 166.113 38.0195C181.42 36.7329 196.673 35.451 212 33.7191C216.662 33.1924 221.317 32.624 225.968 32.056C238.978 30.4676 251.962 28.8822 265 28.2193C282.7 27.4193 300.3 28.4193 318 31.4192C327.31 32.9972 336.593 35.1285 345.877 37.2601C354.243 39.181 362.61 41.1021 371 42.6189C388.7 45.7188 406.3 47.1188 423.8 47.4187C441.3 47.7187 458.7 47.1188 476.2 45.4188C482.959 44.7622 489.733 43.9714 496.522 43.1788C507.31 41.9194 518.136 40.6555 529 39.919C542.038 39.0351 555.022 39.0193 568.031 39.9915C555.022 41.1983 542.038 43.5676 529 47.6188C523.713 49.2616 518.435 51.181 513.166 53.0971C500.795 57.5959 488.473 62.0768 476.2 62.9183C467.153 63.5387 458.133 62.1279 449.112 60.717C440.683 59.3987 432.253 58.0803 423.8 58.4185C413.342 58.8368 402.848 61.7193 392.318 64.6116C385.228 66.5591 378.122 68.511 371 69.7181C353.3 72.718 335.7 71.1181 318 64.7183C312.204 62.6554 306.419 60.0885 300.637 57.5234C288.763 52.2548 276.904 46.9931 265 46.1188C255.418 45.361 245.866 47.4749 236.311 49.5893C228.216 51.3808 220.118 53.1727 212 53.2186C203.799 53.3113 195.618 51.6434 187.44 49.9759C177.968 48.0446 168.499 46.1138 159 46.9188C149.228 47.7469 139.486 51.4706 129.742 55.1955C121.836 58.2175 113.928 61.2403 106 62.7183C92.9859 65.2181 80.0258 63.5013 67.0403 61.7812C62.3647 61.1618 57.6859 60.542 53 60.1184C35.3728 58.4255 17.8449 59.4102 8.91031 59.9122L8.8 59.9184ZM665.81 43.8942C673.199 42.2348 680.591 40.212 688 38.119C689.156 37.7923 690.313 37.4639 691.468 37.1356C708 32.4395 724.456 27.765 741 28.4193C752.216 28.8629 763.392 31.6755 774.579 34.4909C781.046 36.1184 787.516 37.7468 794 38.919C807.562 41.3709 821.066 41.7092 834.601 42.0483C838.73 42.1517 842.862 42.2553 847 42.4189C864.7 43.1189 882.3 44.7188 891.2 45.6188L900 46.4188V67.4182L891.2 67.1182C882.3 66.7182 864.7 66.1182 847 67.2182C839.911 67.6988 832.839 68.468 825.77 69.2369C815.187 70.3879 804.612 71.5382 794 71.7181C776.3 72.118 758.7 69.7181 741 64.9183C732.627 62.6476 724.276 59.7952 715.926 56.9431C706.626 53.7662 697.327 50.5899 688 48.2187C680.591 46.3351 673.199 44.9596 665.81 43.8942Z" fill="#2E4569"/>
<path fill-rule="evenodd" clip-rule="evenodd" d="M8.8 39.5554L0 41.2553V13.2561L8.8 13.5561C17.7 13.9561 35.3 14.5561 53 15.0561C53.5222 15.0708 54.0443 15.0855 54.5663 15.1001C71.7386 15.5824 88.8222 16.0622 106 19.5559C114.232 21.2767 122.442 23.7112 130.651 26.1453C140.092 28.9449 149.532 31.7439 159 33.4556C170.17 35.4119 181.301 35.8946 192.441 35.683C191.153 35.8961 189.864 36.111 188.574 36.326C178.684 37.9752 168.781 39.6265 159 40.4554C158.403 40.506 157.806 40.5566 157.21 40.6073C140.113 42.0597 123.103 43.5047 106 42.0553C98.1568 41.3906 90.3331 40.1173 82.5118 38.8443C72.6825 37.2445 62.8568 35.6453 53 35.2555C36.2154 34.5917 19.5207 37.6147 10.2494 39.2935C9.74382 39.3851 9.26028 39.4726 8.8 39.5554ZM316.166 31.2409C316.777 31.1829 317.389 31.1212 318 31.0556C324.373 30.4075 330.734 29.3445 337.09 28.2821C348.388 26.394 359.673 24.5079 371 24.9558C379.512 25.2444 388.002 26.8743 396.468 28.4999C405.605 30.2544 414.716 32.0037 423.8 32.0556C432.917 32.1598 442.006 30.5814 451.097 29.0029C459.456 27.5513 467.817 26.0995 476.2 25.9558C485.239 25.7492 494.305 27.09 503.398 28.4348C511.909 29.6935 520.443 30.9556 529 30.9556C538.278 30.9556 547.529 29.4718 556.781 27.9878C565.179 26.6408 573.578 25.2937 582 25.0558C590.504 24.8156 598.984 25.7063 607.464 26.597C616.634 27.5602 625.804 28.5233 635 28.0557C643.603 27.6669 652.182 26.0497 660.76 24.4327C669.832 22.7227 678.903 21.0129 688 20.7559C697.098 20.4989 706.169 21.6949 715.24 22.8909C723.819 24.0219 732.398 25.153 741 25.0558C752.568 24.9904 764.093 22.6613 775.631 20.3296C781.748 19.0935 787.868 17.8568 794 16.956C809.937 14.525 825.793 14.2829 841.714 14.0398C843.475 14.0129 845.237 13.986 847 13.9561C864.7 13.5561 882.3 12.9561 891.2 12.5561L900 12.2562V48.2551L891.2 47.4552C882.3 46.5552 864.7 44.9552 847 44.2553C842.862 44.0916 838.73 43.9881 834.601 43.8847C821.066 43.5456 807.562 43.2073 794 40.7554C787.516 39.5832 781.046 37.9548 774.579 36.3273C763.392 33.5119 752.216 30.6992 741 30.2557C724.457 29.6014 708 34.2759 691.468 38.972C690.313 39.3003 689.157 39.6287 688 39.9554C670.3 44.9552 652.7 49.5551 635 49.7551C622.864 49.8922 610.775 47.8669 598.669 45.8387C593.119 44.9088 587.564 43.9783 582 43.2553C564.3 40.9553 546.7 40.5554 529 41.7553C518.136 42.4918 507.31 43.7557 496.522 45.0152C489.733 45.8078 482.959 46.5986 476.2 47.2552C458.7 48.9551 441.3 49.5551 423.8 49.2551C406.3 48.9551 388.7 47.5552 371 44.4553C362.425 42.905 352.817 40.3469 343.176 37.7804C333.906 35.3122 324.606 32.8362 316.166 31.2409Z" fill="#1E2B43"/>
</svg>
