<svg width="1920" height="1080" viewBox="0 0 1920 1080" fill="none" xmlns="http://www.w3.org/2000/svg">
<mask id="mask0_492_1944" style="mask-type:alpha" maskUnits="userSpaceOnUse" x="0" y="0" width="1920" height="1080">
<path d="M0 0H1920V1080H0V0Z" fill="#04080F"/>
</mask>
<g mask="url(#mask0_492_1944)">
<g opacity="0.3">
<mask id="mask1_492_1944" style="mask-type:luminance" maskUnits="userSpaceOnUse" x="-1" y="-317" width="1922" height="1714">
<path d="M1921 -317H-1V1396.29H1921V-317Z" fill="white"/>
</mask>
<g mask="url(#mask1_492_1944)">
<path d="M1443.33 539.639C1443.33 807.419 1226.26 1024.49 958.484 1024.49C690.703 1024.49 473.633 807.416 473.633 539.639C473.633 271.868 690.703 54.7908 958.484 54.7908C1226.26 54.7908 1443.33 271.868 1443.33 539.639Z" stroke="black" stroke-width="3" stroke-miterlimit="10"/>
<path d="M1407.64 988.814C1655.71 740.743 1655.71 338.54 1407.64 90.4685C1159.57 -157.603 757.362 -157.603 509.291 90.4685C261.22 338.54 261.22 740.743 509.291 988.814C757.362 1236.89 1159.57 1236.89 1407.64 988.814Z" stroke="black" stroke-width="3" stroke-miterlimit="10"/>
</g>
<mask id="mask2_492_1944" style="mask-type:luminance" maskUnits="userSpaceOnUse" x="101" y="-317" width="1715" height="1714">
<path d="M1815.08 -317H101.793V1396.29H1815.08V-317Z" fill="white"/>
</mask>
<g mask="url(#mask2_492_1944)">
<path opacity="0.14" d="M753.069 11.751C807.942 -9.83986 867.105 -23.1659 929.13 -26.5822C939.046 -27.1304 948.911 -27.408 958.735 -27.4422C958.794 -25.1533 958.955 -22.8678 959.232 -20.5891C949.374 -20.5617 939.464 -20.291 929.507 -19.7393C868.582 -16.3847 810.447 -3.35338 756.499 17.7646C755.447 15.7053 754.309 13.6973 753.069 11.751ZM671.8 -266.357C669.758 -268.136 667.761 -269.972 665.838 -271.878C533.418 -224.025 414.087 -143.881 317.509 -36.0396C303.872 -20.8118 290.861 -5.16947 278.429 10.8087C280.043 12.7379 281.571 14.739 283.065 16.7744C381.816 -110.934 516.021 -210.507 671.8 -266.357ZM640.245 -102.817C641.749 -101.042 643.171 -99.1983 644.501 -97.2863C717.984 -133.855 798.834 -158.153 884.536 -167.295C884.495 -167.816 884.399 -168.319 884.372 -168.844C884.272 -170.632 884.317 -172.4 884.355 -174.165C797.152 -164.93 714.914 -140.153 640.245 -102.817ZM1469.91 -156.823C1376.96 -225.081 1272.56 -273.341 1162.03 -299.746C1160.35 -297.639 1158.61 -295.59 1156.8 -293.595C1269.95 -266.861 1374.91 -217.487 1466.33 -150.33C1467.46 -152.53 1468.64 -154.702 1469.91 -156.823ZM282.212 753.627C264.682 698.096 253.741 639.518 250.396 578.751C239.534 381.568 310.529 198.472 433.674 62.5296C432.032 60.9294 430.466 59.2606 428.979 57.513C304.416 194.809 232.578 379.841 243.557 579.132C246.946 640.67 258.041 699.99 275.835 756.214C277.881 755.265 280.019 754.415 282.212 753.627ZM1527.07 558.658C1527.61 542.07 1527.48 525.331 1526.55 508.451C1519.31 376.956 1467.57 258.277 1386.79 166.218C1385.17 167.835 1383.48 169.37 1381.72 170.83C1461.48 261.761 1512.56 378.971 1519.71 508.832C1520.64 525.718 1520.77 542.46 1520.2 559.055C1522.48 558.808 1524.77 558.682 1527.07 558.658ZM1427.47 -4.91931C1317.6 -99.1949 1179.38 -160.664 1028.7 -174.988C1028.77 -172.678 1028.74 -170.386 1028.59 -168.121C1177.57 -153.845 1314.24 -93.0305 1422.91 0.18631C1424.35 -1.58866 1425.87 -3.28826 1427.47 -4.91931ZM1409.73 1268.06C1411.18 1270.04 1412.6 1272.05 1413.92 1274.13C1483.39 1231.1 1547.11 1177.9 1603.14 1115.33C1608.85 1108.95 1614.42 1102.48 1619.92 1095.97C1619.75 1092.01 1619.85 1088.09 1620.23 1084.26C1560.76 1156.25 1489.7 1218.51 1409.73 1268.06ZM163.454 852.545C162.919 857.641 162.381 862.75 161.84 867.849C210.624 986.809 286.033 1094.15 384.636 1182.46C395.419 1192.11 406.405 1201.47 417.565 1210.52C419.495 1208.93 421.485 1207.41 423.511 1205.94C309.066 1113.64 218.474 992.336 163.454 852.545ZM999.433 1249.57C901.196 1254.98 806.455 1240.08 719.293 1208.53C718.679 1210.7 717.956 1212.86 717.11 1215.03C805.074 1246.84 900.679 1261.87 999.81 1256.41C1070.38 1252.52 1138 1238.47 1201.41 1215.83C1199.75 1214.03 1198.18 1212.17 1196.7 1210.24C1134.6 1232.16 1068.43 1245.77 999.433 1249.57ZM1521.5 103.453C1607.54 213.817 1661.98 350.524 1670.25 500.533C1671.45 522.387 1671.6 544.054 1670.83 565.521C1673.1 565.836 1675.37 566.272 1677.64 566.82C1678.46 544.807 1678.32 522.576 1677.09 500.156C1668.74 348.636 1613.73 210.551 1526.79 99.1014C1525.09 100.63 1523.33 102.083 1521.5 103.453ZM1625.8 -9.94955C1623.75 -8.54808 1621.64 -7.2288 1619.49 -5.96439C1676.03 62.1595 1722.31 139.278 1755.77 223.113C1757.41 220.92 1759.15 218.795 1760.97 216.733C1728.07 134.971 1682.66 58.6095 1625.8 -9.94955ZM1415.58 865.68C1319.99 998.881 1167.2 1089.33 991.141 1099.03C898.839 1104.11 810.46 1086.43 731.45 1050.9C730.916 1052.09 730.347 1053.27 729.74 1054.45C729.295 1055.32 728.819 1056.16 728.339 1057.01C808.394 1093.06 897.965 1111.03 991.521 1105.87C1169.87 1096.05 1324.62 1004.36 1421.36 869.37C1419.38 868.246 1417.45 867.013 1415.58 865.68ZM626.947 81.1427C499.968 173.787 413.44 317.529 396.365 480.052C398.668 479.541 401.008 479.154 403.386 478.883C420.701 319.396 505.707 178.365 630.277 87.1838C629.074 85.2307 627.961 83.2158 626.947 81.1427Z" fill="black"/>
</g>
</g>
<path opacity="0.4" d="M369.3 -200.749C296.125 -89.0816 115.454 198.418 82.8608 362.494C41.7933 569.227 12.5174 946.567 -17.8761 991.466C-48.2635 1036.37 -126.682 985.984 -178.825 1052.93C-227.158 1114.99 -382.721 1502.48 -404.596 1675.49C-415.286 1790.91 -302.931 1765.53 -290.022 1735.77C-281.709 1632.44 -246.405 1270.8 -152.695 1164.1C-42.9629 1039.16 -41.2355 1170.99 23.3128 1074.03C87.8611 977.071 114.676 379.232 199.272 186.265C260.275 47.1088 348.757 -110.823 393.366 -188.089C410.297 -227.132 389.391 -232.539 369.3 -200.749Z" fill="#F5E0B7"/>
<path opacity="0.4" d="M1701.77 1140.16C1751.38 1016.21 1871.52 698.621 1870.97 531.34C1870.27 320.569 1824.22 -55.0931 1845.12 -105.123C1866.01 -155.159 1952.86 -121.302 1990.71 -197.254C2025.79 -267.652 2101.52 -678.283 2088.69 -852.2C2076.3 -967.448 1971.2 -920.312 1964.44 -888.586C1976.76 -785.654 2013.79 -424.194 1943.07 -301.044C1860.26 -156.842 1832.46 -285.712 1788.4 -177.89C1744.33 -70.0683 1836.47 521.236 1791.77 727.136C1759.54 875.619 1704.1 1047.95 1675.68 1132.52C1666.81 1174.14 1688.38 1175.3 1701.77 1140.16Z" fill="#F5E0B7"/>
<path d="M1467.83 111.453C1472.55 128.478 1462.57 146.109 1445.55 150.829C1434.14 153.991 1422.46 150.552 1414.57 142.821C1414.57 142.816 1414.57 142.816 1414.57 142.816C1413.88 142.14 1413.22 141.429 1412.59 140.689C1412.59 140.689 1412.59 140.687 1412.59 140.682C1409.68 137.255 1407.45 133.161 1406.17 128.545C1401.45 111.52 1411.43 93.8894 1428.45 89.1716C1445.48 84.4491 1463.11 94.4283 1467.83 111.453Z" fill="#FFD438"/>
<path d="M586.83 37.4534C591.548 54.4785 581.571 72.1087 564.546 76.8288C553.139 79.9914 541.458 76.5523 533.573 68.8209C533.573 68.8162 533.573 68.8162 533.573 68.8162C532.883 68.1402 532.221 67.4287 531.595 66.6889C531.595 66.6889 531.59 66.6866 531.588 66.6818C528.678 63.2546 526.452 59.1608 525.171 54.5447C520.45 37.5196 530.43 19.8894 547.455 15.1716C564.48 10.4491 582.112 20.4283 586.83 37.4534Z" fill="#F86624"/>
<path d="M972.582 50.9227C974.578 58.1257 970.357 65.5847 963.154 67.5817C958.328 68.9197 953.386 67.4647 950.05 64.1937C950.05 64.1917 950.05 64.1917 950.05 64.1917C949.758 63.9057 949.478 63.6047 949.213 63.2917C949.213 63.2917 949.211 63.2907 949.21 63.2887C947.979 61.8387 947.037 60.1067 946.495 58.1537C944.498 50.9507 948.72 43.4917 955.923 41.4957C963.126 39.4977 970.586 43.7197 972.582 50.9227Z" fill="#FF530D"/>
<path d="M557.245 699.18C564.322 724.718 549.357 751.163 523.819 758.243C506.709 762.987 489.187 757.828 477.36 746.231C477.36 746.224 477.36 746.224 477.36 746.224C476.325 745.21 475.332 744.143 474.392 743.033C474.392 743.033 474.385 743.03 474.382 743.023C470.017 737.882 466.678 731.741 464.756 724.817C457.676 699.279 472.645 672.834 498.182 665.757C523.72 658.674 550.169 673.642 557.245 699.18Z" fill="#79C9B2"/>
<path d="M1443.58 960.923C1445.58 968.126 1441.36 975.585 1434.15 977.582C1429.33 978.92 1424.39 977.465 1421.05 974.194C1421.05 974.192 1421.05 974.192 1421.05 974.192C1420.76 973.906 1420.48 973.605 1420.21 973.292C1420.21 973.292 1420.21 973.291 1420.21 973.289C1418.98 971.839 1418.04 970.107 1417.5 968.154C1415.5 960.951 1419.72 953.492 1426.92 951.496C1434.13 949.498 1441.59 953.72 1443.58 960.923Z" fill="#FF530D"/>
<path d="M336.582 522.923C338.578 530.126 334.357 537.585 327.154 539.582C322.328 540.92 317.386 539.465 314.05 536.194C314.05 536.192 314.05 536.192 314.05 536.192C313.758 535.906 313.478 535.605 313.213 535.292C313.213 535.292 313.211 535.291 313.21 535.289C311.979 533.839 311.037 532.107 310.495 530.154C308.498 522.951 312.72 515.492 319.923 513.496C327.126 511.498 334.586 515.72 336.582 522.923Z" fill="#FFD438"/>
<path d="M536.424 1004.63C534.894 1011.57 528.031 1015.95 521.095 1014.43C514.157 1012.9 509.775 1006.03 511.304 999.094C512.833 992.158 519.698 987.775 526.634 989.304C533.571 990.834 537.954 997.698 536.424 1004.63Z" fill="#30C5FF"/>
<path d="M1607.55 620.091C1605.29 630.336 1595.15 636.81 1584.91 634.551C1574.66 632.293 1568.19 622.153 1570.45 611.909C1572.71 601.665 1582.85 595.191 1593.09 597.449C1603.34 599.709 1609.81 609.847 1607.55 620.091Z" fill="#30C5FF"/>
</g>
</svg>
