<svg width="45" height="50" viewBox="0 0 45 50" fill="none" xmlns="http://www.w3.org/2000/svg">
<path d="M44.9977 14.7C44.9974 13.8593 44.8155 13.1164 44.4477 12.4788C44.0864 11.8518 43.5453 11.3263 42.8196 10.9108C36.8288 7.49591 30.8323 4.09141 24.8435 0.672992C23.2289 -0.248496 21.6635 -0.214902 20.0609 0.719815C17.6764 2.11005 5.73808 8.87187 2.18061 10.9089C0.715543 11.7474 0.00264103 13.0306 0.00228889 14.6985C0 21.5661 0.00228889 28.4336 0 35.3014C0 36.1237 0.174484 36.8521 0.526093 37.4801C0.887563 38.1261 1.43619 38.666 2.17867 39.0909C5.73632 41.128 17.6762 47.8893 20.0602 49.2799C21.6635 50.2151 23.2289 50.2485 24.844 49.3267C30.833 45.9081 36.8299 42.5038 42.8215 39.0888C43.564 38.6641 44.1126 38.1238 44.4741 37.4784C44.8252 36.8504 45 36.1219 45 35.2995C45 35.2995 45 21.5678 44.9977 14.7Z" fill="#A179DC"/>
<path d="M22.5689 24.9331L0.526123 37.4802C0.887592 38.1262 1.43622 38.6661 2.1787 39.091C5.73635 41.1281 17.6763 47.8894 20.0602 49.28C21.6635 50.2152 23.229 50.2486 24.844 49.3268C30.833 45.9082 36.8299 42.5039 42.8215 39.0889C43.564 38.6642 44.1126 38.1239 44.4741 37.4785L22.5689 24.9331Z" fill="#280068"/>
<path d="M44.9977 14.7C44.9974 13.8593 44.8155 13.1164 44.4477 12.4788L22.5688 24.933L44.4741 37.4784C44.8252 36.8503 44.9997 36.1219 45 35.2994C45 35.2994 45 21.5678 44.9977 14.7Z" fill="#390091"/>
<path d="M35.547 20.2424V22.5877H37.9193V20.2424H39.1054V22.5877H41.4777V23.7603H39.1054V26.1056H41.4777V27.2782H39.1054V29.6235H37.9193V27.2782H35.547V29.6235H34.3608V27.2782H31.9885V26.1056H34.3608V23.7603H31.9885V22.5877H34.3608V20.2424H35.547ZM37.9193 23.7603H35.547V26.1056H37.9193V23.7603Z" fill="white"/>
<path d="M22.6173 8.46387C28.805 8.46387 34.2074 11.7861 37.101 16.7242L37.0728 16.6767L29.7926 20.8208C28.3582 18.4199 25.7286 16.7996 22.7123 16.7662L22.6173 16.7657C18.0174 16.7657 14.2881 20.4522 14.2881 24.9997C14.2881 26.4869 14.6892 27.8809 15.3866 29.0849C16.8223 31.5627 19.5212 33.234 22.6173 33.234C25.7324 33.234 28.4467 31.5415 29.8751 29.0372L29.8404 29.0973L37.1096 33.2605C34.2477 38.1568 28.9194 41.4688 22.8036 41.5348L22.6173 41.5358C16.41 41.5358 10.9923 38.1931 8.10593 33.2289C6.69685 30.8054 5.89062 27.9958 5.89062 24.9997C5.89062 15.8673 13.3792 8.46387 22.6173 8.46387Z" fill="white"/>
</svg>
