<svg width="51" height="52" viewBox="0 0 51 52" fill="none" xmlns="http://www.w3.org/2000/svg">
<path d="M28.5002 13.3846C21.8205 13.3846 16.3848 18.8203 16.3848 25.5C16.3848 32.1797 21.8205 37.6154 28.5002 37.6154C35.1799 37.6154 40.6156 32.1797 40.6156 25.5C40.6156 18.8203 35.1799 13.3846 28.5002 13.3846ZM28.5002 34.1538C23.7202 34.1538 19.8463 30.2799 19.8463 25.5C19.8463 20.72 23.7202 16.8461 28.5002 16.8461C33.2801 16.8461 37.154 20.72 37.154 25.5C37.154 30.2799 33.2801 34.1538 28.5002 34.1538ZM28.5002 9.92306C29.4557 9.92306 30.2309 9.14779 30.2309 8.19229V4.73076C30.2309 3.77526 29.4557 2.99999 28.5002 2.99999C27.5447 2.99999 26.7694 3.77526 26.7694 4.73076V8.19229C26.7694 9.14779 27.5447 9.92306 28.5002 9.92306ZM28.5002 41.0769C27.5447 41.0769 26.7694 41.8522 26.7694 42.8077V46.2692C26.7694 47.2247 27.5447 48 28.5002 48C29.4557 48 30.2309 47.2247 30.2309 46.2692V42.8077C30.2309 41.8522 29.4557 41.0769 28.5002 41.0769ZM41.961 14.4844L44.4084 12.037C45.0845 11.3609 45.0845 10.2656 44.4084 9.58957C43.7323 8.91348 42.6371 8.91348 41.961 9.58957L39.5136 12.037C38.8375 12.7131 38.8375 13.8083 39.5136 14.4844C40.1897 15.1605 41.2849 15.1605 41.961 14.4844ZM15.0393 36.5157L12.5919 38.9631C11.9158 39.6391 11.9158 40.7343 12.5919 41.4104C13.268 42.0865 14.3632 42.0865 15.0393 41.4104L17.4867 38.9631C18.1628 38.2847 18.1628 37.1917 17.4867 36.5157C16.8108 35.8395 15.7154 35.8372 15.0393 36.5157ZM12.9232 25.5C12.9232 24.5445 12.148 23.7692 11.1925 23.7692H7.73094C6.77545 23.7692 6.00017 24.5445 6.00017 25.5C6.00017 26.4555 6.77545 27.2308 7.73094 27.2308H11.1925C12.148 27.2308 12.9232 26.4555 12.9232 25.5ZM49.2694 23.7692H45.8079C44.8524 23.7692 44.0771 24.5445 44.0771 25.5C44.0771 26.4555 44.8524 27.2308 45.8079 27.2308H49.2694C50.2249 27.2308 51.0002 26.4555 51.0002 25.5C51.0002 24.5445 50.2249 23.7692 49.2694 23.7692ZM15.0371 14.4844C15.7132 15.1605 16.8085 15.1605 17.4845 14.4844C18.1607 13.8083 18.1607 12.7131 17.4845 12.037L15.0371 9.58957C14.361 8.91348 13.2658 8.91348 12.5896 9.58957C11.9136 10.2656 11.9136 11.3609 12.5896 12.037L15.0371 14.4844ZM41.9633 36.5133C41.2849 35.8372 40.1918 35.8372 39.5159 36.5133C38.8397 37.1894 38.8375 38.2846 39.5159 38.9607L41.9633 41.4081C42.6393 42.0842 43.7345 42.0842 44.4106 41.4081C45.0867 40.7321 45.0867 39.6368 44.4106 38.9607L41.9633 36.5133Z" fill="white" fill-opacity="0.5"/>
<path d="M18.857 14.7871C19.4584 10.139 21.2857 5.9539 23.962 2.48327C24.6102 1.64386 23.9551 0.418152 22.8953 0.545636C10.6775 2.02634 0.688787 12.0011 0.118138 25.0411C-0.418199 37.3499 8.22159 48.5713 20.347 51.2981C28.7602 53.1904 36.9308 50.8674 42.8898 45.8953C43.6944 45.2226 43.2521 43.905 42.2034 43.8134C41.9251 43.7902 41.6435 43.7594 41.3626 43.7231C27.1039 41.8782 17.0278 28.9247 18.857 14.7871Z" fill="#507DBC"/>
</svg>
