<svg width="486" height="483" viewBox="0 0 486 483" fill="none" xmlns="http://www.w3.org/2000/svg">
<path d="M360.042 244.341C360.042 311.284 306.282 365.552 239.966 365.552C173.65 365.552 119.891 311.284 119.891 244.341C119.891 177.398 173.65 123.131 239.966 123.131C306.282 123.131 360.042 177.398 360.042 244.341Z" fill="#507DBC"/>
<path d="M219.298 0L261 93L246 90L230 89L215 91L202 95L219.298 0Z" fill="#507DBC"/>
<path d="M330.126 47L322 116L313 108L305 101L292.126 97L279.105 95L330.126 47Z" fill="#507DBC"/>
<path d="M446.051 191.609L389.967 227.417L390.992 203.5L388.783 197.506L380.967 182.417L446.051 191.609Z" fill="#507DBC"/>
<path d="M429.103 80.4013L372 168L365 154L357 142L347 132L335 125L429.103 80.4013Z" fill="#507DBC"/>
<path d="M486 304.331L387 305L392 294L396.786 281V268L395 251L486 304.331Z" fill="#507DBC"/>
<path d="M303.811 449.63C273.86 471.132 236.9 483.032 199.068 483C189.908 482.88 180.723 482.022 171.581 480.789C164.386 479.822 157.221 478.413 150.163 476.463C126.127 469.905 103.159 458.538 82.7417 443.562C75.9089 438.516 69.3211 433.095 63.1822 427.187C57.4765 421.479 52.1645 415.387 46.9363 409.24C43.0164 404.551 39.0908 399.849 35.5927 394.837C17.7015 368.43 5.61978 338.076 1.65225 306.975C-1.76451 280.288 0.0620241 253.174 7.65391 228.032C15.2043 202.797 28.4766 179.72 45.8342 160.513C51.3854 154.6 57.4149 149.166 63.5533 143.88C68.1293 140.011 72.7484 136.167 77.737 132.827C96.9884 120.181 118.722 111.118 141.678 106.717C153.658 104.42 165.936 103.289 178.278 103.456C179.931 103.52 181.602 103.502 183.244 103.851C184.178 104.27 182.368 104.495 182.055 104.699C177.258 106.276 172.392 107.677 167.718 109.567C133.629 122.904 105.665 149.594 90.2056 182.872C78.7473 207.376 74.3293 235.465 77.3891 263.202C80.7595 294.587 93.6121 325.468 113.928 350.51C129.226 369.488 148.764 384.977 170.393 395.654C193.058 406.913 218.094 412.777 242.718 412.386C259.46 412.172 275.928 409.009 291.451 403.581C304.837 398.893 317.344 392.046 328.504 383.48C336.313 377.477 343.619 370.819 350.272 363.547C357.667 355.461 363.947 346.349 369.04 336.562C370.795 333.314 372.214 329.858 374.253 326.785C374.964 325.8 374.803 327.759 374.763 328.198C374.365 332.377 373.472 336.458 372.635 340.538C370.893 348.537 368.956 356.492 366.475 364.251C360.824 381.457 352.079 397.362 341.529 411.758C330.893 426.167 318.329 439.176 303.811 449.63Z" fill="#A1C6EA" fill-opacity="0.3"/>
</svg>
