<svg width="531" height="533" viewBox="0 0 531 533" fill="none" xmlns="http://www.w3.org/2000/svg">
<path d="M360.375 293.641C360.375 360.666 306.565 415 240.188 415C173.81 415 120 360.666 120 293.641C120 226.616 173.81 172.282 240.188 172.282C306.565 172.282 360.375 226.616 360.375 293.641Z" fill="#A1C6EA" fill-opacity="0.5"/>
<path d="M217.416 0.507446L249.108 139.632L226.084 137.666L215.253 139.453L204.275 142.647L217.416 0.507446Z" fill="#A1C6EA" fill-opacity="0.5"/>
<path d="M333.717 59.3786L313.416 156.213L301.812 149.461L295.632 148.024L289 147.456L333.717 59.3786Z" fill="#A1C6EA" fill-opacity="0.5"/>
<path d="M486.451 237.702L395.189 273.841L394.39 260.342L392.178 254.341L389 248.437L486.451 237.702Z" fill="#A1C6EA" fill-opacity="0.5"/>
<path d="M458.484 99.8032L370.186 211.295L357.412 191.854L349.298 184.392L340 177.689L458.484 99.8032Z" fill="#A1C6EA" fill-opacity="0.5"/>
<path d="M530.37 355.399L389 353.705L396.32 331.575L397.153 320.525L396.666 309L530.37 355.399Z" fill="#A1C6EA" fill-opacity="0.5"/>
<path d="M304.091 499.182C274.113 520.71 237.118 532.625 199.251 532.593C190.082 532.473 180.889 531.614 171.738 530.38C164.536 529.411 157.365 528.001 150.301 526.048C126.242 519.482 103.253 508.101 82.8164 493.107C75.9772 488.054 69.3832 482.627 63.2387 476.711C57.5277 470.996 52.2107 464.897 46.9776 458.742C43.054 454.048 39.1248 449.34 35.6234 444.322C17.7155 417.883 5.62257 387.491 1.65135 356.352C-1.76859 329.632 0.0596404 302.485 7.6586 277.312C15.2161 252.046 28.5007 228.941 45.8745 209.71C51.4308 203.79 57.466 198.349 63.6101 193.057C68.1903 189.183 72.8137 185.335 77.807 181.991C97.0763 169.328 118.83 160.254 141.807 155.848C153.798 153.548 166.088 152.416 178.442 152.583C180.096 152.647 181.768 152.629 183.412 152.978C184.347 153.398 182.536 153.624 182.223 153.828C177.421 155.407 172.55 156.809 167.872 158.702C133.751 172.055 105.761 198.778 90.2872 232.097C78.8182 256.631 74.3961 284.754 77.4588 312.526C80.8323 343.949 93.6969 374.868 114.032 399.941C129.344 418.941 148.9 434.45 170.549 445.14C193.235 456.413 218.295 462.284 242.942 461.893C259.699 461.678 276.182 458.511 291.72 453.077C305.118 448.382 317.637 441.528 328.808 432.951C336.624 426.941 343.937 420.274 350.596 412.993C357.998 404.897 364.283 395.774 369.382 385.975C371.138 382.723 372.558 379.263 374.599 376.187C375.311 375.2 375.15 377.161 375.11 377.601C374.712 381.785 373.817 385.872 372.979 389.956C371.236 397.965 369.297 405.93 366.815 413.698C361.158 430.925 352.405 446.85 341.845 461.264C331.199 475.69 318.624 488.716 304.091 499.182Z" fill="#FFDA44" fill-opacity="0.8"/>
</svg>
