<svg width="35" height="50" viewBox="0 0 35 50" fill="none" xmlns="http://www.w3.org/2000/svg">
<path d="M17.5 25.0001C17.5 20.3965 21.4192 16.668 26.25 16.668C31.0846 16.668 35 20.393 35 25.0001C35 29.6037 31.0846 33.3323 26.25 33.3323C21.4231 33.3323 17.5 29.6073 17.5 25.0001Z" fill="#1ABCFE"/>
<path d="M0 41.6677C0 37.0642 3.91923 33.332 8.75 33.332H17.5V41.6677C17.5 46.2677 13.5808 49.9999 8.75 49.9999C3.91923 49.9999 0 46.2677 0 41.6677Z" fill="#0ACF83"/>
<path d="M17.5 0V16.6679H26.25C31.0846 16.6679 35 12.9357 35 8.33214C35 3.73214 31.0846 0 26.25 0H17.5Z" fill="#FF7262"/>
<path d="M0 8.33214C0 12.9357 3.91923 16.6679 8.75 16.6679H17.5V0H8.75C3.91923 0 0 3.73214 0 8.33214Z" fill="#F24E1E"/>
<path d="M0 25.0001C0 29.6037 3.91923 33.3323 8.75 33.3323H17.5V16.668H8.75C3.91923 16.668 0 20.393 0 25.0001Z" fill="#A259FF"/>
</svg>
