<svg width="50" height="50" viewBox="0 0 50 50" fill="none" xmlns="http://www.w3.org/2000/svg">
<path d="M25 50C38.8071 50 50 38.8071 50 25C50 11.1929 38.8071 0 25 0C11.1929 0 0 11.1929 0 25C0 38.8071 11.1929 50 25 50Z" fill="#0769AD"/>
<path d="M36.8881 20.3948C39.1328 20.3948 41.188 19.6462 42.7769 18.4046C41.1273 20.5782 38.3942 21.9993 35.3017 21.9993C30.2639 21.9993 26.1799 18.228 26.1799 13.576C26.1799 10.9966 27.4355 8.68795 29.413 7.14282C28.3753 8.51011 27.7664 10.1751 27.7664 11.9715C27.7664 16.6235 31.8503 20.3948 36.8881 20.3948Z" fill="#78CFF5"/>
<path d="M42.6901 26.176C40.2701 28.0742 37.1373 29.2192 33.7153 29.2192C26.0491 29.2192 19.8342 23.4726 19.8342 16.3837C19.8342 13.6343 20.7692 11.0867 22.361 8.99805C19.3596 11.3525 17.4546 14.8657 17.4546 18.7903C17.4546 25.8792 23.6694 31.626 31.3357 31.626C36.0287 31.626 40.1776 29.4726 42.6901 26.176Z" fill="#78CFF5"/>
<path d="M42.8571 33.5181C39.4087 36.8088 34.6316 38.8462 29.3526 38.8462C18.8387 38.8462 10.3156 30.7649 10.3156 20.7962C10.3156 17.6372 11.1714 14.6679 12.6752 12.0852C9.25572 15.3483 7.14282 19.8438 7.14282 24.8072C7.14282 34.776 15.6659 42.8572 26.1798 42.8572C33.3619 42.8572 39.6153 39.086 42.8571 33.5181Z" fill="#78CFF5"/>
</svg>
