<svg id="visual" viewBox="0 0 900 100" width="900" height="100" xmlns="http://www.w3.org/2000/svg" xmlns:xlink="http://www.w3.org/1999/xlink" version="1.1"><path d="M0 57L10 51.5C20 46 40 35 60 30.8C80 26.7 100 29.3 120 28.2C140 27 160 22 180 20.5C200 19 220 21 240 29.2C260 37.3 280 51.7 300 54.5C320 57.3 340 48.7 360 44.3C380 40 400 40 420 37.5C440 35 460 30 480 33C500 36 520 47 540 50.3C560 53.7 580 49.3 600 46.8C620 44.3 640 43.7 660 39.8C680 36 700 29 720 26.3C740 23.7 760 25.3 780 34.8C800 44.3 820 61.7 840 65C860 68.3 880 57.7 890 52.3L900 47L900 101L890 101C880 101 860 101 840 101C820 101 800 101 780 101C760 101 740 101 720 101C700 101 680 101 660 101C640 101 620 101 600 101C580 101 560 101 540 101C520 101 500 101 480 101C460 101 440 101 420 101C400 101 380 101 360 101C340 101 320 101 300 101C280 101 260 101 240 101C220 101 200 101 180 101C160 101 140 101 120 101C100 101 80 101 60 101C40 101 20 101 10 101L0 101Z" fill="#263758"></path><path d="M0 76L10 74.7C20 73.3 40 70.7 60 69.8C80 69 100 70 120 72.7C140 75.3 160 79.7 180 76.8C200 74 220 64 240 64.3C260 64.7 280 75.3 300 72.5C320 69.7 340 53.3 360 47.5C380 41.7 400 46.3 420 48.8C440 51.3 460 51.7 480 54.8C500 58 520 64 540 65.5C560 67 580 64 600 61C620 58 640 55 660 53.3C680 51.7 700 51.3 720 55.8C740 60.3 760 69.7 780 68.8C800 68 820 57 840 50.8C860 44.7 880 43.3 890 42.7L900 42L900 101L890 101C880 101 860 101 840 101C820 101 800 101 780 101C760 101 740 101 720 101C700 101 680 101 660 101C640 101 620 101 600 101C580 101 560 101 540 101C520 101 500 101 480 101C460 101 440 101 420 101C400 101 380 101 360 101C340 101 320 101 300 101C280 101 260 101 240 101C220 101 200 101 180 101C160 101 140 101 120 101C100 101 80 101 60 101C40 101 20 101 10 101L0 101Z" fill="#19253b"></path><path d="M0 66L10 68.5C20 71 40 76 60 75C80 74 100 67 120 66.5C140 66 160 72 180 76.5C200 81 220 84 240 83.2C260 82.3 280 77.7 300 76C320 74.3 340 75.7 360 73.7C380 71.7 400 66.3 420 67C440 67.7 460 74.3 480 75.2C500 76 520 71 540 67.8C560 64.7 580 63.3 600 65.2C620 67 640 72 660 76.2C680 80.3 700 83.7 720 85.5C740 87.3 760 87.7 780 86C800 84.3 820 80.7 840 77.8C860 75 880 73 890 72L900 71L900 101L890 101C880 101 860 101 840 101C820 101 800 101 780 101C760 101 740 101 720 101C700 101 680 101 660 101C640 101 620 101 600 101C580 101 560 101 540 101C520 101 500 101 480 101C460 101 440 101 420 101C400 101 380 101 360 101C340 101 320 101 300 101C280 101 260 101 240 101C220 101 200 101 180 101C160 101 140 101 120 101C100 101 80 101 60 101C40 101 20 101 10 101L0 101Z" fill="#0d1320"></path></svg>