<svg width="50" height="30" viewBox="0 0 50 30" fill="none" xmlns="http://www.w3.org/2000/svg">
<path d="M25 30C38.8071 30 50 23.2843 50 15C50 6.71573 38.8071 0 25 0C11.1929 0 0 6.71573 0 15C0 23.2843 11.1929 30 25 30Z" fill="#8993BE"/>
<path fill-rule="evenodd" clip-rule="evenodd" d="M7.02068 23.8815L9.76052 7.89453H16.0959C18.8355 8.09196 20.2054 9.67076 20.2054 12.4342C20.2054 17.171 16.9521 19.9342 14.041 19.7367H10.9592L10.2742 23.8815H7.02068ZM11.6439 16.7763L12.5002 10.8551H14.7261C15.9248 10.8551 16.7808 11.4472 16.7808 12.6314C16.6097 15.9868 15.2398 16.5789 13.6988 16.7763H11.6439ZM19.5689 19.7367L22.3086 3.75H25.5621L24.8771 7.89453H27.9592C30.699 8.09196 31.7263 9.67076 31.384 11.6446L30.1853 19.7367H26.7607L27.9593 12.4342C28.1304 11.4472 28.1304 10.8551 26.932 10.8551H24.3634L22.8224 19.7367H19.5689ZM29.966 23.8815L32.7056 7.89453H39.0412C41.781 8.09196 43.1509 9.67076 43.1509 12.4342C43.1509 17.171 39.8974 19.9342 36.9865 19.7367H33.9043L33.2193 23.8815H29.966ZM34.589 16.7763L35.4453 10.8551H37.6715C38.8701 10.8551 39.7261 11.4472 39.7261 12.6314C39.555 15.9868 38.1851 16.5789 36.6441 16.7763H34.5892H34.589Z" fill="#232531"/>
</svg>
