<svg width="55" height="50" viewBox="0 0 55 50" fill="none" xmlns="http://www.w3.org/2000/svg">
<path d="M27.5013 30.1373C30.3351 30.1373 32.6323 27.789 32.6323 24.8924C32.6323 21.9957 30.3351 19.6475 27.5013 19.6475C24.6675 19.6475 22.3702 21.9957 22.3702 24.8924C22.3702 27.789 24.6675 30.1373 27.5013 30.1373Z" fill="#00D8FF"/>
<path fill-rule="evenodd" clip-rule="evenodd" d="M27.8782 13.8367C36.6267 13.8976 46.1715 14.55 52.7234 20.5223C52.9159 20.6979 53.1015 20.8807 53.2826 21.0692C54.8283 22.6797 55.6361 25.2799 54.3883 27.4198C51.8285 31.8132 46.1039 33.7294 40.5615 34.9088C32.2725 36.6728 23.6054 36.6868 15.3198 35.1337C10.552 34.2389 5.67642 32.6706 2.28818 29.3899C0.969316 28.1132 -0.158189 26.4336 0.01827 24.5643C0.30473 21.5401 3.14297 19.5993 5.53205 18.2851C12.1676 14.6355 20.2526 13.8191 27.8782 13.8367ZM27.2434 15.2106C18.9659 15.268 10.0065 15.8079 3.61506 21.218C3.39162 21.4066 3.1762 21.6045 2.9688 21.8118C2.83474 21.9453 2.70526 22.0847 2.58037 22.2276C1.45859 23.516 1.07244 25.5856 2.1312 27.1328C3.19683 28.6894 4.81475 29.8127 6.4808 30.7286C12.7119 34.1534 20.075 34.7613 27.2537 34.787C34.5218 34.814 42.0167 34.137 48.4368 30.7438C50.9944 29.391 53.8727 27.4046 53.7707 24.8465C53.6768 22.4993 51.4378 21.0493 49.7614 20.0139C49.3077 19.734 48.8413 19.4751 48.3681 19.2315C41.9949 15.9672 34.5264 15.1942 27.2434 15.2106Z" fill="#00D8FF"/>
<path fill-rule="evenodd" clip-rule="evenodd" d="M39.0903 0.000707355C42.2906 0.0838668 43.9486 4.01696 44.1675 6.92168C44.211 7.49911 44.2271 8.07889 44.2202 8.65866C44.2133 9.28646 44.1801 9.91425 44.1262 10.5397C43.4513 18.2841 39.992 25.6595 35.9186 32.4704C31.9345 39.1325 27.0761 45.7759 20.4669 48.8633C18.2818 49.8847 15.6831 50.5148 13.7489 49.3752C11.0974 47.8139 10.8075 44.1619 10.8568 41.3919C10.8694 40.7114 10.9129 40.0309 10.9817 39.3527C12.0003 29.3267 16.9721 19.829 23.194 11.6465C26.8241 6.87249 31.1427 2.13709 36.5224 0.422361C37.3692 0.151799 38.0418 -0.0121765 39.0903 0.000707355ZM38.9367 1.37342C35.1795 1.43433 31.8062 4.28049 28.819 7.23792C20.9654 15.0116 15.1778 25.3503 12.8494 36.1926C12.6695 37.0324 12.5183 37.8781 12.4071 38.7296C12.3212 39.389 12.2582 40.0519 12.2249 40.7172C12.1986 41.2466 12.1894 41.7772 12.2054 42.3078C12.2169 42.7224 12.2433 43.137 12.2879 43.5493C12.3212 43.8644 12.3659 44.1783 12.422 44.4899C12.4644 44.7206 12.5137 44.9502 12.571 45.1786C12.6179 45.3636 12.6707 45.5475 12.7302 45.7302C13.1989 47.1744 14.4066 48.5541 16.028 48.5998C19.8104 48.7052 23.3716 45.886 26.4505 42.822C31.8554 37.4447 35.8831 30.6877 39.0295 23.5852C41.5687 17.8507 43.8913 11.6173 42.5942 5.30535C42.545 5.06641 42.4877 4.82981 42.4224 4.59556C42.3685 4.40465 42.3078 4.21607 42.2413 4.02984C41.7372 2.6255 40.5512 1.36991 38.9367 1.37342Z" fill="#00D8FF"/>
<path fill-rule="evenodd" clip-rule="evenodd" d="M16.1666 0.0523502C20.2504 0.133167 23.9182 2.96645 27.1747 6.13939C33.117 11.9289 37.4998 19.2938 40.8251 27.0452C43.4009 33.0503 45.7705 39.7909 43.6644 46.1274C43.001 48.1244 41.3223 49.9515 39.0845 49.9984C34.9813 50.0827 31.1782 47.0328 27.8782 43.7497C19.5995 35.5111 13.4533 24.6348 11.3472 13.1002C11.1959 12.2756 11.0756 11.444 10.9931 10.6089C10.9255 9.92725 10.8831 9.24206 10.8717 8.55687C10.8625 8.00404 10.874 7.4512 10.9118 6.90071C10.937 6.53293 10.9737 6.1675 11.0229 5.80324C11.0699 5.46123 11.1295 5.12039 11.204 4.78307C11.2532 4.55936 11.3082 4.33799 11.3713 4.1178C11.9889 1.95916 13.5953 0.0359525 16.1666 0.0523502ZM16.0119 1.42624C13.6205 1.48012 12.5263 4.36259 12.3063 6.38535C12.2616 6.79998 12.2341 7.21812 12.2215 7.63626C12.2054 8.17035 12.2123 8.70562 12.2387 9.23972C12.6145 16.9689 15.9947 24.4415 20.0739 31.284C23.9148 37.7259 28.5531 44.1421 34.9332 47.4404C36.7757 48.3926 39.0146 49.141 40.6062 48.2415C42.6023 47.1124 42.8475 44.422 42.954 42.4168C42.9827 41.871 42.9861 41.3229 42.9689 40.7759C42.9483 40.0895 42.8956 39.4044 42.8165 38.7227C42.0809 32.3545 39.3217 26.3284 36.1523 20.6337C32.2083 13.55 27.3763 6.4896 20.538 2.8013C19.1217 2.03764 17.5886 1.41335 16.0119 1.42624Z" fill="#00D8FF"/>
</svg>
