<svg width="37" height="50" viewBox="0 0 37 50" fill="none" xmlns="http://www.w3.org/2000/svg">
<path d="M4.6886 23.6714C9.12283 25.1703 13.8008 25.8918 18.5 25.8018C23.1994 25.8913 27.8773 25.1691 32.3114 23.6696C35.7726 22.3714 37 20.9286 37 20.0982V13.75C35.7899 14.5293 34.4917 15.1739 33.1303 15.6714C28.4388 17.287 23.4825 18.0746 18.5 17.9964C13.5179 18.0731 8.56212 17.2868 3.86972 15.675C2.50765 15.1775 1.20928 14.5316 0 13.75V20.0893C0 20.9357 1.23111 22.3714 4.6886 23.6714Z" fill="#FFDA44"/>
<path d="M4.6886 35.6446C6.25507 36.2191 7.87041 36.6618 9.51646 36.9678C12.4764 37.5185 15.4852 37.7894 18.5 37.7767C21.5147 37.79 24.5235 37.5197 27.4835 36.9696C29.1296 36.6636 30.7449 36.2209 32.3114 35.6464C35.7726 34.3482 37 32.9053 37 32.075V26.0214C35.9997 26.6002 34.9484 27.0932 33.8582 27.4946C28.9296 29.1727 23.7275 29.9851 18.5 29.8928C13.272 29.9822 8.0698 29.1668 3.14182 27.4857C2.05207 27.0832 1.00082 26.5903 0 26.0125V32.0714C0 32.9035 1.23111 34.341 4.6886 35.6446Z" fill="#FFDA44"/>
<path d="M18.5 50.0001C28.7128 50.0001 37 46.8858 37 43.0465V37.9805C36.09 38.508 35.1368 38.9631 34.1497 39.3412L33.8582 39.4537C28.9306 41.1368 23.7284 41.954 18.5 41.8662C13.2714 41.9565 8.06877 41.1393 3.14182 39.4537C3.04155 39.418 2.945 39.3769 2.8503 39.3412C1.86323 38.9631 0.909958 38.508 0 37.9805V43.0465C0 46.8858 8.28721 50.0001 18.5 50.0001Z" fill="#FFDA44"/>
<path d="M18.5 13.9071C28.7173 13.9071 37 10.7939 37 6.95357C37 3.11322 28.7173 0 18.5 0C8.28273 0 0 3.11322 0 6.95357C0 10.7939 8.28273 13.9071 18.5 13.9071Z" fill="#FFDA44"/>
</svg>
